<?xml version="1.0" encoding="UTF-8"?>
<svg width="108px" height="128px" viewBox="0 0 108 128" version="1.1" xmlns="http://www.w3.org/2000/svg" xmlns:xlink="http://www.w3.org/1999/xlink">
    <!-- Generator: Sketch 47 (45396) - http://www.bohemiancoding.com/sketch -->
    <title>Group 45</title>
    <desc>Created with Sketch.</desc>
    <defs></defs>
    <g id="Page-1" stroke="none" stroke-width="1" fill="none" fill-rule="evenodd">
        <g id="首页最终定稿-copy" transform="translate(-781.000000, -1403.000000)" stroke="#3C90EA" stroke-width="4">
            <g id="Group-45" transform="translate(783.000000, 1405.000000)">
                <path d="M71.6372362,28.3458374 C72.5454115,25.2191801 73.7078282,21.9599182 74.8873803,20.673653 C76.8854458,18.4945164 81.1174873,17.6008413 83.6658776,16.2458627 C90.8898369,12.4051495 88.1330325,4.36689584 81.7216092,5.89747513 C76.6877911,7.09935558 72.33102,13.7030678 70.5226392,19.6883602 C69.8220809,22.0065308 69.1697408,24.4657445 68.616228,26.6922974 C67.0469456,25.8613082 65.4489714,25.0556344 63.8250948,24.2748742 C58.5007722,21.7148005 52.8409149,16.9992983 52.8409149,16.9992983 C51.7538142,15.950516 50.0299148,15.9894937 48.9902353,17.0852904 C48.9902353,17.0852904 42.9386551,22.4710489 38.3001464,24.7554656 C36.2399153,25.7700922 34.2546017,26.8112398 32.3358371,27.8781046 C31.5854667,24.0498481 30.9371115,19.6775107 31.4244737,17.8085886 C32.1736487,14.9383004 35.4935298,12.145164 37.1122259,9.74180488 C41.7001255,2.92994349 35.5222216,-2.860862 30.575276,1.52714688 C26.6911227,4.97245714 25.9212258,12.8656493 27.1123343,19.0060489 C27.7742384,22.4196144 28.6600979,26.4138276 29.3849645,29.5738369 C10.5551694,40.7889768 -0.515882936,55.1372033 0.0185019617,76.6894795 C0.716669255,104.853906 23.6856559,123.798693 51.6243026,123.998403 C80.5153578,124.204543 104,104.431982 104,75.3465559 C104,53.4547314 90.2578201,38.8871045 71.6372362,28.3458374 Z" id="Stroke-24"></path>
                <path d="M72,72 C72,83.5977787 62.5980865,93 50.9998017,93 C39.4019135,93 30,83.5977787 30,72 C30,60.4022213 39.4019135,51 50.9998017,51 C62.5980865,51 72,60.4022213 72,72 Z" id="Stroke-26"></path>
            </g>
        </g>
    </g>
</svg>