<?xml version="1.0" encoding="UTF-8"?>
<svg width="122px" height="118px" viewBox="0 0 122 118" version="1.1" xmlns="http://www.w3.org/2000/svg" xmlns:xlink="http://www.w3.org/1999/xlink">
    <!-- Generator: Sketch 47 (45396) - http://www.bohemiancoding.com/sketch -->
    <title>Group 43</title>
    <desc>Created with Sketch.</desc>
    <defs>
        <polygon id="path-1" points="14.7690233 29.6504647 0 29.6504647 0 0.000177876818 14.7690233 0.000177876818 29.5380466 0.000177876818 29.5380466 29.6504647 14.7690233 29.6504647"></polygon>
    </defs>
    <g id="Page-1" stroke="none" stroke-width="1" fill="none" fill-rule="evenodd">
        <g id="首页最终定稿-copy" transform="translate(-1405.000000, -1404.000000)">
            <g id="Group-43" transform="translate(1399.000000, 1406.000000)">
                <ellipse id="Oval-7" stroke="#5192EB" stroke-width="4" cx="72" cy="53.5" rx="54" ry="53.5"></ellipse>
                <g id="Group-44" transform="translate(102.000000, 9.000000)" fill="#FFFFFF">
                    <circle id="Oval-7-Copy-2" cx="15.2173913" cy="15.2173913" r="9.7826087"></circle>
                    <circle id="Oval-7-Copy" stroke="#5192EB" stroke-width="4" cx="9.7826087" cy="9.7826087" r="9.7826087"></circle>
                </g>
                <g id="Group-44-Copy" transform="translate(18.500000, 53.500000) rotate(40.000000) translate(-18.500000, -53.500000) translate(6.000000, 41.000000)" fill="#FFFFFF">
                    <circle id="Oval-7-Copy-2" cx="14.8148148" cy="14.8148148" r="10.1851852"></circle>
                    <circle id="Oval-7-Copy" stroke="#5192EB" stroke-width="4" cx="10.1851852" cy="10.1851852" r="10.1851852"></circle>
                </g>
                <g id="Group-44-Copy-2" transform="translate(89.500000, 103.500000) rotate(-50.000000) translate(-89.500000, -103.500000) translate(77.000000, 91.000000)" fill="#FFFFFF">
                    <circle id="Oval-7-Copy-2" cx="15" cy="15" r="10"></circle>
                    <circle id="Oval-7-Copy" stroke="#5192EB" stroke-width="4" cx="10" cy="10" r="10"></circle>
                </g>
                <g id="Page-1" transform="translate(72.213203, 53.213203) rotate(-225.000000) translate(-72.213203, -53.213203) translate(57.213203, 38.213203)">
                    <mask id="mask-2" fill="white">
                        <use xlink:href="#path-1"></use>
                    </mask>
                    <g id="Clip-2"></g>
                    <path d="M2.09758274,29.6504647 C0.940790493,29.6504647 -0.000177876818,28.7094964 -0.000177876818,27.5532971 C-0.000177876818,27.5189075 0.00634427319,27.4862968 0.0104947323,27.4530931 L0.0300611823,27.2864818 L0.0104947323,27.1145342 C0.00634427319,27.0825164 -0.000177876818,27.0504986 -0.000177876818,27.0178878 L-0.000177876818,6.11558289 C-0.000177876818,4.95879065 0.940790493,4.01782228 2.09758274,4.01782228 C3.25378205,4.01782228 4.19475042,4.95879065 4.19475042,6.11558289 L4.19475042,22.3782675 L25.9544216,0.618596282 C26.3534586,0.219559286 26.8805669,0.000177876818 27.4367284,0.000177876818 C27.9940758,0.000177876818 28.5199983,0.219559286 28.9190353,0.618596282 C29.3180723,1.01763328 29.5380466,1.54414866 29.5380466,2.1009031 C29.5380466,2.65765754 29.3180723,3.18417293 28.9190353,3.58320992 L7.04670875,25.4561294 L23.0004806,25.4561294 C24.1566799,25.4561294 25.0976483,26.3970977 25.0976483,27.5532971 C25.0976483,28.7094964 24.1566799,29.6504647 23.0004806,29.6504647 L2.09758274,29.6504647 Z" id="Fill-1" fill="#5F94EC" mask="url(#mask-2)"></path>
                </g>
            </g>
        </g>
    </g>
</svg>