<?xml version="1.0" standalone="no"?><!DOCTYPE svg PUBLIC "-//W3C//DTD SVG 1.1//EN" "http://www.w3.org/Graphics/SVG/1.1/DTD/svg11.dtd"><svg t="1539561006575" class="icon" style="" viewBox="0 0 1024 1024" version="1.1" xmlns="http://www.w3.org/2000/svg" p-id="4368" xmlns:xlink="http://www.w3.org/1999/xlink" width="200" height="200"><defs><style type="text/css"></style></defs><path d="M256 160l-192 0c-35.392 0-64 28.672-64 64l0 704c0 35.36 28.64 64 64 64l192 0c35.36 0 64-28.608 64-64l0-704c0-35.328-28.64-64-64-64zM96 800c-17.696 0-32-14.304-32-32s14.304-32 32-32c17.696 0 32 14.304 32 32s-14.304 32-32 32zM256 416l-192 0 0-64 192 0 0 64zM256 288l-192 0 0-64 192 0 0 64z" p-id="4369" fill="#1dc7ea"></path><path d="M672 864l0-64-192 0 0 64c-35.36 0-64 28.64-64 64l320 0c0-35.392-28.608-64-64-64z" p-id="4370" fill="#1dc7ea"></path><path d="M960 32l-768 0c-35.36 0-64 28.672-64 64l832 0 0 512-576 0 0 128 576 0c35.36 0 64-28.608 64-64l0-576c0-35.328-28.64-64-64-64zM576 704c-17.696 0-32-14.304-32-32 0-17.664 14.304-32 32-32s32 14.304 32 32c0 17.696-14.304 32-32 32z" p-id="4371" fill="#1dc7ea"></path></svg>