<?xml version="1.0" standalone="no"?><!DOCTYPE svg PUBLIC "-//W3C//DTD SVG 1.1//EN" "http://www.w3.org/Graphics/SVG/1.1/DTD/svg11.dtd"><svg t="1539561316589" class="icon" style="" viewBox="0 0 1024 1024" version="1.1" xmlns="http://www.w3.org/2000/svg" p-id="7726" xmlns:xlink="http://www.w3.org/1999/xlink" width="200" height="200"><defs><style type="text/css"></style></defs><path d="M512 464a48 48 0 1 0 0 96 48 48 0 0 0 0-96z m464 0h-50.976C903.008 272.672 751.296 121.104 560 99.056V48a48 48 0 1 0-96 0v50.976C272.672 120.992 121.088 272.704 99.056 464H48a48 48 0 1 0 0 96h50.976C120.992 751.328 272.704 902.912 464 924.944V976a48 48 0 1 0 96 0v-51.056C751.296 902.912 903.008 751.328 925.024 560H976a48 48 0 1 0 0-96z m-240 96h92.016C807.168 698.224 698.144 807.248 560 828.112V736a48 48 0 1 0-96 0v92.096C325.856 807.248 216.832 698.224 195.984 560H288a48 48 0 1 0 0-96h-92.096C216.752 325.856 325.792 216.832 464 195.984V288a48 48 0 1 0 96 0v-92.096C698.144 216.752 807.168 325.792 828.016 464H736a48 48 0 1 0 0 96z" fill="#1dc7ea" p-id="7727"></path></svg>