<?xml version="1.0" standalone="no"?><!DOCTYPE svg PUBLIC "-//W3C//DTD SVG 1.1//EN" "http://www.w3.org/Graphics/SVG/1.1/DTD/svg11.dtd"><svg t="1539561084772" class="icon" style="" viewBox="0 0 1024 1024" version="1.1" xmlns="http://www.w3.org/2000/svg" p-id="7009" xmlns:xlink="http://www.w3.org/1999/xlink" width="200" height="200"><defs><style type="text/css"></style></defs><path d="M408 102.4l381.312 0c19.2 0 34.688 15.296 34.688 34.112l0 750.976c0 18.88-15.488 34.112-34.688 34.112L234.688 921.6c-19.2 0-34.688-15.232-34.688-34.112L200 307.2l208 0L408 102.4zM96 273.088l0 682.688C96 993.472 127.04 1024 165.312 1024l693.376 0c38.272 0 69.312-30.528 69.312-68.224L928 68.288C928 30.528 896.96 0 858.688 0L373.376 0 96 273.088zM442.688 785.152l138.624 0 0-136.64 114.88 0L512.256 467.648l-182.656 180.864 113.152 0L442.752 785.152z" p-id="7010" fill="#1dc7ea"></path></svg>