<?xml version="1.0" standalone="no"?><!DOCTYPE svg PUBLIC "-//W3C//DTD SVG 1.1//EN" "http://www.w3.org/Graphics/SVG/1.1/DTD/svg11.dtd"><svg t="1539009997609" class="icon" style="" viewBox="0 0 1024 1024" version="1.1" xmlns="http://www.w3.org/2000/svg" p-id="25008" xmlns:xlink="http://www.w3.org/1999/xlink" width="200" height="200"><defs><style type="text/css"></style></defs><path d="M395.946667 196.266667h194.56c30.72 0 56.32-20.48 56.32-44.373334v-13.653333c0-23.893333-25.6-44.373333-56.32-44.373333H395.946667c-30.72 0-56.32 20.48-56.32 44.373333v13.653333c0 23.893333 25.6 44.373333 56.32 44.373334z m370.346666 187.733333h68.266667v-187.733333c0-47.786667-37.546667-85.333333-85.333333-85.333334h-34.133334v68.266667h51.2v204.8z m-418.133333-17.066667h290.133333c13.653333 0 25.6-5.12 25.6-13.653333v-8.533333c0-6.826667-11.946667-13.653333-25.6-13.653334h-290.133333c-13.653333 0-25.6 5.12-25.6 13.653334v8.533333c0 8.533333 11.946667 13.653333 25.6 13.653333z m0 119.466667h290.133333c13.653333 0 25.6-5.12 25.6-13.653333v-8.533334c0-6.826667-11.946667-11.946667-25.6-11.946666h-290.133333c-13.653333 0-25.6 5.12-25.6 11.946666v8.533334c0 8.533333 11.946667 13.653333 25.6 13.653333z m554.666667 153.6h-25.6l-61.44-134.826667C827.733333 494.933333 836.266667 477.866667 836.266667 460.8c0-32.426667-27.306667-59.733333-59.733334-59.733333S716.8 428.373333 716.8 460.8c0 17.066667 6.826667 30.72 17.066667 42.666667l-63.146667 136.533333h-23.893333c-29.013333 0-51.2 22.186667-51.2 51.2v17.066667c0 29.013333 22.186667 51.2 51.2 51.2h256c29.013333 0 51.2-22.186667 51.2-51.2v-17.066667c0-29.013333-22.186667-51.2-51.2-51.2z m-139.946667-121.173333c3.413333 1.706667 8.533333 1.706667 11.946667 1.706666h8.533333l54.613333 119.466667h-131.413333l56.32-121.173333z m157.013333 189.44c0 10.24-6.826667 17.066667-17.066666 17.066666h-256c-10.24 0-17.066667-6.826667-17.066667-17.066666v-17.066667c0-10.24 6.826667-17.066667 17.066667-17.066667h256c10.24 0 17.066667 6.826667 17.066666 17.066667v17.066667z m-699.733333-529.066667h51.2v-68.266667h-34.133333c-47.786667 0-85.333333 37.546667-85.333334 85.333334v597.333333c0 47.786667 37.546667 85.333333 85.333334 85.333333h512c47.786667 0 85.333333-20.48 85.333333-68.266666h-614.4v-631.466667z m128 426.666667h221.866667c13.653333 0 25.6-5.12 25.6-13.653334v-8.533333c0-6.826667-11.946667-13.653333-25.6-13.653333h-221.866667c-13.653333 0-25.6 5.12-25.6 13.653333v8.533333c0 8.533333 11.946667 13.653333 25.6 13.653334z" fill="#ffffff" p-id="25009"></path></svg>