<?xml version="1.0" standalone="no"?><!DOCTYPE svg PUBLIC "-//W3C//DTD SVG 1.1//EN" "http://www.w3.org/Graphics/SVG/1.1/DTD/svg11.dtd"><svg t="1539009958598" class="icon" style="" viewBox="0 0 1024 1024" version="1.1" xmlns="http://www.w3.org/2000/svg" p-id="23936" xmlns:xlink="http://www.w3.org/1999/xlink" width="200" height="200"><defs><style type="text/css"></style></defs><path d="M470.416361 291.488198c19.192449 35.186156 38.384898 60.776088 63.974829 83.167278 28.788673-22.39119 54.378605-51.179864 73.571055-83.167278h-137.545884z" fill="#ffffff" p-id="23937"></path><path d="M774.296803 125.15364C607.962245-41.180918 339.267959-41.180918 172.933402 121.954898 6.598844 288.289456 6.598844 556.983742 169.73466 723.318299l297.482959 300.681701 300.681701-297.482959c169.533299-166.334558 169.533299-435.028843 6.397483-601.363401zM323.274252 211.51966l31.987415 12.794966c-28.788673 54.378605-54.378605 102.359728-76.769796 137.545885h51.179864c9.596224-19.192449 22.39119-41.583639 35.186156-63.97483l31.987415 15.993707c-41.583639 73.571054-76.769796 127.94966-102.359728 166.334558 25.589932-3.198741 54.378605-6.397483 86.366021-12.794966-3.198741 12.794966-3.198741 22.39119-3.198742 31.987415-31.987415 3.198741-73.571054 9.596224-121.552177 19.192449l-6.397483-31.987415c15.993707-19.192449 38.384898-51.179864 67.173572-95.962245-31.987415 3.198741-51.179864 3.198741-67.173572 3.198741l-9.596224-28.788673c28.788673-31.987415 54.378605-86.36602 83.167279-153.539592z m67.173571 371.054014c-38.384898 9.596224-86.36602 19.192449-140.744626 35.186156l-9.596224-35.186156c44.782381-9.596224 95.962245-19.192449 150.34085-35.186157v35.186157z m223.911905 60.776088c-73.571054-25.589932-140.744626-47.981122-198.321973-63.97483l12.794966-31.987415c54.378605 15.993707 121.552177 35.186156 198.321973 57.577347l-12.794966 38.384898z m-147.142109-143.943367l12.794966-28.788674c44.782381 12.794966 89.564762 28.788673 131.148401 44.782381l-15.993707 35.186157c-38.384898-22.39119-83.167279-38.384898-127.94966-51.179864z m195.123231-22.391191c-51.179864-15.993707-92.763503-35.186156-131.148401-60.776088-38.384898 25.589932-83.167279 47.981122-137.545884 67.173571-3.198741-9.596224-9.596224-22.39119-15.993708-31.987415 47.981122-12.794966 89.564762-31.987415 127.94966-57.577347-22.39119-22.39119-41.583639-47.981122-57.577347-76.769795-12.794966 22.39119-28.788673 44.782381-44.782381 67.173571l-22.39119-22.39119c35.186156-47.981122 63.97483-95.962245 83.167279-150.340851l31.987415 9.596225-19.192449 38.384898H639.94966v31.987415c-22.39119 38.384898-51.179864 73.571054-86.366021 102.359727 31.987415 22.39119 73.571054 38.384898 118.353436 44.782381 0 15.993707-3.198741 28.788673-9.596225 38.384898z" fill="#ffffff" p-id="23938"></path></svg>