<?xml version="1.0" encoding="UTF-8"?>
<svg width="122px" height="122px" viewBox="0 0 122 122" version="1.1" xmlns="http://www.w3.org/2000/svg" xmlns:xlink="http://www.w3.org/1999/xlink">
    <!-- Generator: Sketch 47 (45396) - http://www.bohemiancoding.com/sketch -->
    <title>Group 17</title>
    <desc>Created with Sketch.</desc>
    <defs></defs>
    <g id="Page-1" stroke="none" stroke-width="1" fill="none" fill-rule="evenodd">
        <g id="首页最终定稿-copy" transform="translate(-969.000000, -2034.000000)">
            <g id="Group-17" transform="translate(970.000000, 2035.000000)">
                <circle id="Oval-12-Copy" stroke="#FFFFFF" cx="60" cy="60" r="60"></circle>
                <path d="M39.1400979,55.8011147 L38.4560988,55.8011147 C37.4914302,55.8011147 36.70777,56.6316333 36.70777,57.6517641 L36.70777,74.5251049 C36.70777,75.5460937 37.4914302,76.3761833 38.4560988,76.3761833 L39.1400979,76.3761833 C40.1047665,76.3761833 40.8884267,75.5460937 40.8884267,74.5251049 L40.8884267,57.6517641 C40.8884267,56.6316333 40.1047665,55.8011147 39.1400979,55.8011147" id="Fill-1" fill="#FFFFFF"></path>
                <path d="M69.9855226,62.4590308 C68.8475384,62.4173111 67.9246585,63.4033301 67.8841196,64.7038165 L67.7653986,68.5370886 C67.7256871,69.8362292 68.5852767,70.8872949 69.7232609,70.928566 C70.8616587,70.9702856 71.7845386,69.983818 71.8246639,68.6846775 L71.9433849,64.8514053 C71.9835101,63.5513675 71.1235068,62.5003018 69.9855226,62.4590308" id="Fill-6" fill="#FFFFFF"></path>
                <path d="M87.4538881,69.5178892 C87.4538881,71.1046355 86.4448244,72.4507543 85.0212705,72.7851045 L84.9583911,72.8029772 C84.838621,72.8474409 84.6692318,72.8552875 84.3988934,72.8552875 L65.7746329,72.8552875 C64.0614918,72.8552875 62.7196382,71.3892908 62.7196382,69.5178892 L62.7196382,63.554077 C62.7196382,61.6818035 64.0614918,60.2162427 65.7746329,60.2162427 L84.3988934,60.2162427 C84.6692318,60.2162427 84.838621,60.2249611 84.9374314,60.2615784 L85.0003107,60.2807588 C86.4448244,60.6216477 87.4538881,61.9668947 87.4538881,63.554077 L87.4538881,69.5178892 Z M81.2690423,79.9537977 C81.2690423,81.8260711 79.9263333,83.2920678 78.2131922,83.2920678 L35.6006789,83.2920678 C33.88711,83.2920678 32.5461119,81.8260711 32.5461119,79.9537977 L32.5461119,53.1172966 C32.5461119,51.3391817 33.9730879,49.7798983 35.6006789,49.7798983 L78.2131922,49.7798983 C79.9263333,49.7798983 81.2690423,51.2450232 81.2690423,53.1172966 L81.2690423,55.7092729 L65.7746329,55.7092729 C61.7747372,55.7092729 58.519983,59.2284496 58.519983,63.554077 L58.519983,69.5178892 C58.519983,73.8430806 61.7747372,77.3622573 65.7746329,77.3622573 L81.2690423,77.3622573 L81.2690423,79.9537977 Z M66.5167802,38.5231538 L66.6660651,38.5231538 C67.1917706,38.5231538 68.3899,39.3949924 68.9070504,41.5048419 L69.7646904,45.3470348 L46.8496638,45.3470348 L39.0397936,45.7855696 L66.5167802,38.5231538 Z M85.7672675,55.8230479 L85.4669866,55.7559163 L85.4669866,53.0423185 C85.4669866,48.717127 82.2130879,45.1979504 78.2131922,45.1979504 L74.1114918,45.1979504 L74.0387742,44.9032689 C73.3607895,42.136489 72.9480102,40.2786009 72.9480102,40.2786009 C72.0937923,36.6495726 69.4515769,34.015748 66.6660651,34.015748 C66.2733901,34.015748 65.9547159,34.0741612 65.5817174,34.1434724 L65.4739242,34.1609092 L32.5384124,44.1704886 C29.9586486,44.9468609 28.2899936,48.0200921 28.4799149,51.6412738 L28.4820536,51.6818143 L28.4760651,51.721483 C28.4119025,52.1495558 28.3464567,52.6587095 28.3464567,53.1922748 L28.3464567,80.0287758 C28.3464567,84.3539673 31.6003554,87.8740157 35.6006789,87.8740157 L78.2131922,87.8740157 C82.2130879,87.8740157 85.4669866,84.3539673 85.4669866,80.0287758 L85.4669866,77.2480464 L85.7741115,77.18571 C89.1807172,76.4912905 91.6535433,73.2667953 91.6535433,69.5178892 L91.6535433,63.554077 C91.6535433,59.8326337 89.1781507,56.5806756 85.7672675,55.8230479 L85.7672675,55.8230479 Z" id="Fill-3" fill="#FFFFFF"></path>
            </g>
        </g>
    </g>
</svg>