<?xml version="1.0" encoding="UTF-8" standalone="no"?>
<svg width="122px" height="122px" viewBox="0 0 122 122" version="1.1" xmlns="http://www.w3.org/2000/svg" xmlns:xlink="http://www.w3.org/1999/xlink">
    <!-- Generator: Sketch 46.2 (44496) - http://www.bohemiancoding.com/sketch -->
    <title>Group 42</title>
    <desc>Created with Sketch.</desc>
    <defs></defs>
    <g id="Page-1" stroke="none" stroke-width="1" fill="none" fill-rule="evenodd">
        <g id="首页最终定稿" transform="translate(-1232.000000, -1814.000000)">
            <g id="Group-47" transform="translate(1179.666667, 1777.000000)">
                <g id="Group-42" transform="translate(53.000000, 38.000000)">
                    <circle id="Oval-12-Copy-2" stroke="#FFFFFF" cx="60" cy="60" r="60"></circle>
                    <g id="Group-28" transform="translate(34.000000, 28.000000)" fill-rule="nonzero" fill="#FFFFFF">
                        <path d="M4.07355378,60.3746976 L22.8225644,52.3989819 C24.5160079,51.6786013 26.4034144,51.6786013 28.0968578,52.3989819 L46.8458684,60.3746976 L46.8458684,4.35196157 L4.07355378,4.35196157 L4.07355378,60.3746976 Z M3.05516533,0 L47.8642569,0 C49.5515781,0 50.9194222,1.46132967 50.9194222,3.26397118 L50.9194222,61.9789815 C50.9194222,63.781623 49.5515781,65.2429527 47.8642569,65.2429527 C47.4771936,65.2429527 47.0936556,65.1643753 46.7340512,65.0114018 L26.5899168,56.4422089 C25.8641554,56.1334744 25.0552669,56.1334744 24.3295054,56.4422089 L4.18537106,65.0114018 C2.61775088,65.6782579 0.840933299,64.8611908 0.216737912,63.1864313 C0.0735505204,62.8022496 0,62.3924987 0,61.9789815 L0,3.26397118 C0,1.46132967 1.36784411,0 3.05516533,0 Z" id="Rectangle-10"></path>
                        <path d="M34.4535471,32.1186759 C34.453772,32.1200228 34.4539952,32.1213698 34.4542166,32.1227168 L34.4535471,32.1186759 Z M16.4663105,32.1160593 C16.4660838,32.1174166 16.4658589,32.118774 16.4656357,32.1201314 L16.4663105,32.1160593 Z M20.5478081,21.6152716 C20.1098264,21.6814666 19.7220039,21.9725924 19.5152408,22.4056335 L19.8414598,21.7215011 L20.5478081,21.6152716 Z M18.2218977,43.7262284 C16.5830203,44.6181779 14.6368817,43.1545111 14.9653014,41.1748421 L16.3341538,32.9136415 L10.5240183,27.0519832 C9.14137885,25.657238 9.90829018,23.2153004 11.7637589,22.9363272 L19.8414598,21.7215011 L23.4436408,14.1671618 C24.2804527,12.413667 26.6389695,12.413667 27.476054,14.1677332 L31.077962,21.7215006 L39.155596,22.9363171 C41.011132,23.2153004 41.7780434,25.657238 40.3954773,27.0519092 L34.5852695,32.9136388 L35.9540551,41.174446 C36.2825405,43.1545111 34.3364019,44.6181779 32.6976779,43.7263119 L25.4597116,39.7880123 L18.2218977,43.7262284 Z M24.8409477,39.4513325 C25.230237,39.6627789 25.6891852,39.6627789 26.0784745,39.4513325 L24.4301301,35.9876083 C25.0766455,35.636447 25.8427768,35.636447 26.490445,35.9882351 L31.887675,38.9249586 L30.8725623,32.7986086 C30.739665,32.0028982 30.9934083,31.1942092 31.5410119,30.6404881 L35.7897182,26.3541054 L29.8621539,25.4626432 C29.1358189,25.3528675 28.4990981,24.8744278 28.1640504,24.1708492 L25.4597111,18.4994247 L22.7558132,24.169923 C22.4203241,24.8744278 21.7836034,25.3528675 21.056039,25.4628286 L15.1297037,26.3541056 L19.379917,30.6420099 C19.926014,31.1942092 20.1797572,32.0028982 20.0472952,32.795992 L19.0317478,38.9249583 L24.4289772,35.9882351 L26.0796274,39.4507057 L25.4597116,39.7880123 L24.8409477,39.4513325 Z" id="Fill-1"></path>
                    </g>
                </g>
            </g>
        </g>
    </g>
</svg>