<?xml version="1.0" encoding="UTF-8"?>
<svg width="122px" height="122px" viewBox="0 0 122 122" version="1.1" xmlns="http://www.w3.org/2000/svg" xmlns:xlink="http://www.w3.org/1999/xlink">
    <!-- Generator: Sketch 47 (45396) - http://www.bohemiancoding.com/sketch -->
    <title>Group 14</title>
    <desc>Created with Sketch.</desc>
    <defs></defs>
    <g id="Page-1" stroke="none" stroke-width="1" fill="none" fill-rule="evenodd">
        <g id="首页最终定稿-copy" transform="translate(-1787.000000, -2034.000000)">
            <g id="Group-14" transform="translate(1788.000000, 2035.000000)">
                <circle id="Oval-12-Copy" stroke="#FFFFFF" cx="60" cy="60" r="60"></circle>
                <path d="M90.4640625,56.19 L56.6803125,89.97375 C56.2415625,90.4125 54.9253125,90.4125 54.4865625,89.97375 L29.9165625,65.40375 C29.4778125,64.965 29.4778125,64.0875 29.9165625,63.21 L63.7003125,29.42625 C64.1390625,28.9875 64.5778125,28.9875 65.0165625,28.9875 C65.0165625,28.9875 65.4553125,28.9875 65.8940625,29.42625 L72.4753125,36.0075 C70.7203125,39.5175 71.1590625,43.46625 73.7915625,46.09875 C76.4240625,48.73125 80.8115625,49.17 83.8828125,47.415 L90.4640625,53.99625 C90.9028125,54.87375 90.9028125,55.75125 90.4640625,56.19 M93.5353125,50.925 L85.1990625,42.58875 C84.3215625,41.71125 83.0053125,41.71125 82.1278125,42.58875 C80.8115625,43.905 78.1790625,43.905 76.8628125,42.58875 C75.5465625,41.2725 75.5465625,38.64 76.8628125,37.32375 C77.7403125,36.44625 77.7403125,35.13 76.8628125,34.2525 L68.9653125,26.355 C66.7715625,24.16125 62.8228125,24.16125 60.6290625,26.355 L26.8453125,60.13875 C24.6515625,62.3325 24.6515625,66.28125 26.8453125,68.475 L51.4153125,93.045 C52.2928125,94.36125 53.6090625,94.8 55.3640625,94.8 C57.1190625,94.8 58.4353125,94.36125 59.7515625,93.045 L93.5353125,59.26125 C95.7290625,57.0675 95.7290625,53.11875 93.5353125,50.925" id="Fill-1" fill="#FFFFFF"></path>
                <path d="M72.2139535,56.8338462 L63.9069767,56.8338462 L63.9069767,48.4153846 C63.9069767,47.0861538 63.0325581,46.2 61.7209302,46.2 C60.4093023,46.2 59.5348837,47.0861538 59.5348837,48.4153846 L59.5348837,58.1630769 L58.8790698,58.8276923 L54.7255814,54.6184615 C53.8511628,53.7323077 52.5395349,53.7323077 51.6651163,54.6184615 C50.7906977,55.5046154 50.7906977,56.8338462 51.6651163,57.72 L55.7402567,62.0086302 L54.0697674,63.7015385 L49.9162791,59.4923077 C49.0418605,58.6061538 47.7302326,58.6061538 46.855814,59.4923077 C45.9813953,60.3784615 45.9813953,61.7076923 46.855814,62.5938462 L50.9309544,66.8824763 L48.1674419,69.6830769 C47.2930233,70.5692308 47.2930233,71.8984615 48.1674419,72.7846154 C48.6046512,73.2276923 49.4790698,73.2276923 49.9162791,73.2276923 C50.3534884,73.2276923 51.227907,72.7846154 51.6651163,72.3415385 L53.9337079,70.0425009 L58.2232558,74.5569231 C58.6604651,75 59.5348837,75 59.972093,75 C60.4093023,75 60.8465116,74.5569231 61.2837209,74.1138462 C62.1581395,73.2276923 62.1581395,71.8984615 61.2837209,71.0123077 L57.1302326,66.8030769 L58.7430102,65.1686548 L63.0325581,69.6830769 C63.4697674,70.1261538 64.344186,70.1261538 64.7813953,70.1261538 C65.2186047,70.1261538 65.655814,69.6830769 66.0930233,69.24 C66.9674419,68.3538462 66.9674419,67.0246154 66.0930233,66.1384615 L61.9395349,61.9292308 L62.5953488,61.2646154 L72.2139535,61.2646154 C73.5255814,61.2646154 74.4,60.3784615 74.4,59.0492308 C74.4,57.72 73.5255814,56.8338462 72.2139535,56.8338462" id="Fill-4" fill="#FFFFFF"></path>
            </g>
        </g>
    </g>
</svg>