<?xml version="1.0" encoding="UTF-8"?>
<svg width="122px" height="122px" viewBox="0 0 122 122" version="1.1" xmlns="http://www.w3.org/2000/svg" xmlns:xlink="http://www.w3.org/1999/xlink">
    <!-- Generator: Sketch 47 (45396) - http://www.bohemiancoding.com/sketch -->
    <title>Group 20</title>
    <desc>Created with Sketch.</desc>
    <defs></defs>
    <g id="Page-1" stroke="none" stroke-width="1" fill="none" fill-rule="evenodd">
        <g id="首页最终定稿-copy" transform="translate(-1787.000000, -2034.000000)" fill="#3C90EA">
            <g id="Group-20" transform="translate(1788.000000, 2035.000000)">
                <circle id="Oval-12-Copy" stroke="#3C90EA" fill-opacity="0.1" cx="60" cy="60" r="60"></circle>
                <g id="Page-1" transform="translate(25.200000, 24.600000)">
                    <path d="M65.2640625,31.59 L31.4803125,65.37375 C31.0415625,65.8125 29.7253125,65.8125 29.2865625,65.37375 L4.7165625,40.80375 C4.2778125,40.365 4.2778125,39.4875 4.7165625,38.61 L38.5003125,4.82625 C38.9390625,4.3875 39.3778125,4.3875 39.8165625,4.3875 C39.8165625,4.3875 40.2553125,4.3875 40.6940625,4.82625 L47.2753125,11.4075 C45.5203125,14.9175 45.9590625,18.86625 48.5915625,21.49875 C51.2240625,24.13125 55.6115625,24.57 58.6828125,22.815 L65.2640625,29.39625 C65.7028125,30.27375 65.7028125,31.15125 65.2640625,31.59 M68.3353125,26.325 L59.9990625,17.98875 C59.1215625,17.11125 57.8053125,17.11125 56.9278125,17.98875 C55.6115625,19.305 52.9790625,19.305 51.6628125,17.98875 C50.3465625,16.6725 50.3465625,14.04 51.6628125,12.72375 C52.5403125,11.84625 52.5403125,10.53 51.6628125,9.6525 L43.7653125,1.755 C41.5715625,-0.43875 37.6228125,-0.43875 35.4290625,1.755 L1.6453125,35.53875 C-0.5484375,37.7325 -0.5484375,41.68125 1.6453125,43.875 L26.2153125,68.445 C27.0928125,69.76125 28.4090625,70.2 30.1640625,70.2 C31.9190625,70.2 33.2353125,69.76125 34.5515625,68.445 L68.3353125,34.66125 C70.5290625,32.4675 70.5290625,28.51875 68.3353125,26.325" id="Fill-1"></path>
                    <path d="M47.0139535,32.2338462 L38.7069767,32.2338462 L38.7069767,23.8153846 C38.7069767,22.4861538 37.8325581,21.6 36.5209302,21.6 C35.2093023,21.6 34.3348837,22.4861538 34.3348837,23.8153846 L34.3348837,33.5630769 L33.6790698,34.2276923 L29.5255814,30.0184615 C28.6511628,29.1323077 27.3395349,29.1323077 26.4651163,30.0184615 C25.5906977,30.9046154 25.5906977,32.2338462 26.4651163,33.12 L30.5402567,37.4086302 L28.8697674,39.1015385 L24.7162791,34.8923077 C23.8418605,34.0061538 22.5302326,34.0061538 21.655814,34.8923077 C20.7813953,35.7784615 20.7813953,37.1076923 21.655814,37.9938462 L25.7309544,42.2824763 L22.9674419,45.0830769 C22.0930233,45.9692308 22.0930233,47.2984615 22.9674419,48.1846154 C23.4046512,48.6276923 24.2790698,48.6276923 24.7162791,48.6276923 C25.1534884,48.6276923 26.027907,48.1846154 26.4651163,47.7415385 L28.7337079,45.4425009 L33.0232558,49.9569231 C33.4604651,50.4 34.3348837,50.4 34.772093,50.4 C35.2093023,50.4 35.6465116,49.9569231 36.0837209,49.5138462 C36.9581395,48.6276923 36.9581395,47.2984615 36.0837209,46.4123077 L31.9302326,42.2030769 L33.5430102,40.5686548 L37.8325581,45.0830769 C38.2697674,45.5261538 39.144186,45.5261538 39.5813953,45.5261538 C40.0186047,45.5261538 40.455814,45.0830769 40.8930233,44.64 C41.7674419,43.7538462 41.7674419,42.4246154 40.8930233,41.5384615 L36.7395349,37.3292308 L37.3953488,36.6646154 L47.0139535,36.6646154 C48.3255814,36.6646154 49.2,35.7784615 49.2,34.4492308 C49.2,33.12 48.3255814,32.2338462 47.0139535,32.2338462" id="Fill-4"></path>
                </g>
            </g>
        </g>
    </g>
</svg>