<?xml version="1.0" standalone="no"?><!DOCTYPE svg PUBLIC "-//W3C//DTD SVG 1.1//EN" "http://www.w3.org/Graphics/SVG/1.1/DTD/svg11.dtd"><svg t="1539051487408" class="icon" style="" viewBox="0 0 1024 1024" version="1.1" xmlns="http://www.w3.org/2000/svg" p-id="17375" xmlns:xlink="http://www.w3.org/1999/xlink" width="200" height="200"><defs><style type="text/css"></style></defs><path d="M512.855 91.519c-232.507 0-421.632 189.126-421.632 421.527 0 232.436 189.126 421.492 421.632 421.492 232.472 0 421.597-189.055 421.597-421.492 0-232.403-189.125-421.527-421.597-421.527zM512.855 857.035c-189.752 0-344.094-154.308-344.094-343.988 0-189.683 154.343-343.99 344.094-343.99 189.682 0 344.025 154.308 344.025 343.99 0 189.682-154.343 343.988-344.025 343.988zM712.843 617.462l-161.236-104.625 0-211.582c0-21.411-17.303-38.786-38.751-38.786s-38.785 17.375-38.785 38.786l0 253.674 196.506 127.569c6.58 4.248 13.891 6.267 21.098 6.267 12.71 0 25.174-6.199 32.555-17.652 11.699-18.001 6.545-41.989-11.386-53.652z" p-id="17376" fill="#ffffff"></path></svg>