
<svg viewBox="0 0 60 54" version="1.1" xmlns="http://www.w3.org/2000/svg" xmlns:xlink="http://www.w3.org/1999/xlink">
    <desc>D2Admin</desc>
    <defs></defs>
    <g id="Symbols" stroke="none" stroke-width="1" fill="none" fill-rule="evenodd">
        <g id="logo-no-shadow" transform="translate(-3.000000, -3.000000)">
            <path d="M44.2833805,33.4299717 L6.05798302,56.3652102 C4.16366196,57.5018028 1.70662094,56.8875426 0.570028297,54.9932215 C0.197031333,54.3715599 8.87839274e-17,53.6602143 0,52.9352385 L-4.4408921e-16,7.06476152 C-7.1463071e-16,4.85562252 1.790861,3.06476152 4,3.06476152 C4.72497578,3.06476152 5.43632142,3.26179285 6.05798302,3.63478981 L44.2833805,26.5700283 C46.1777016,27.7066209 46.7919618,30.163662 45.6553692,32.057983 C45.3175701,32.6209814 44.8463789,33.0921727 44.2833805,33.4299717 Z" id="Triangle-Copy" fill="#35495E" transform="translate(25.000000, 30.000000) rotate(-180.000000) translate(-25.000000, -30.000000) "></path>
            <path d="M60.2833805,33.4299717 L22.057983,56.3652102 C20.163662,57.5018028 17.7066209,56.8875426 16.5700283,54.9932215 C16.1970313,54.3715599 16,53.6602143 16,52.9352385 L16,7.06476152 C16,4.85562252 17.790861,3.06476152 20,3.06476152 C20.7249758,3.06476152 21.4363214,3.26179285 22.057983,3.63478981 L60.2833805,26.5700283 C62.1777016,27.7066209 62.7919618,30.163662 61.6553692,32.057983 C61.3175701,32.6209814 60.8463789,33.0921727 60.2833805,33.4299717 Z" id="Triangle" fill="#409EFF"></path>
            <path d="M42.4688663,31.7973091 L24.0289915,42.8612339 C23.081831,43.4295303 21.8533105,43.1224001 21.2850141,42.1752396 C21.0985157,41.8644088 21,41.508736 21,41.1462481 L21,19.0183984 C21,17.9138289 21.8954305,17.0183984 23,17.0183984 C23.3624879,17.0183984 23.7181607,17.116914 24.0289915,17.3034125 L42.4688663,28.3673374 C43.4160268,28.9356337 43.7231569,30.1641542 43.1548606,31.1113147 C42.9859611,31.3928139 42.7503655,31.6284096 42.4688663,31.7973091 Z" id="Triangle-Copy" fill="#FFFFFF" transform="translate(31.000000, 30.082670) rotate(-180.000000) translate(-31.000000, -30.082670) "></path>
            <path d="M37.5708451,30.8574929 L30.5144958,35.0913025 C30.0409155,35.3754507 29.4266552,35.2218856 29.1425071,34.7483054 C29.0492578,34.59289 29,34.4150536 29,34.2338096 L29,25.7661904 C29,25.2139056 29.4477153,24.7661904 30,24.7661904 C30.1812439,24.7661904 30.3590804,24.8154482 30.5144958,24.9086975 L37.5708451,29.1425071 C38.0444254,29.4266552 38.1979905,30.0409155 37.9138423,30.5144958 C37.8293925,30.6552454 37.7115947,30.7730432 37.5708451,30.8574929 Z" id="Triangle" fill="#409EFF"></path>
        </g>
    </g>
</svg>