<?xml version="1.0" encoding="utf-8"?>
<!-- Generator: Adobe Illustrator 17.0.0, SVG Export Plug-In . SVG Version: 6.00 Build 0)  -->
<!DOCTYPE svg PUBLIC "-//W3C//DTD SVG 1.1//EN" "http://www.w3.org/Graphics/SVG/1.1/DTD/svg11.dtd">
<svg version="1.1" id="Warstwa_1" xmlns="http://www.w3.org/2000/svg" xmlns:xlink="http://www.w3.org/1999/xlink" x="0px" y="0px"
	 width="707.1px" height="200px" viewBox="0 0 707.1 200" enable-background="new 0 0 707.1 200" xml:space="preserve">
<polygon fill="#61DAFB" points="0,150 0,50 86.6,0 173.2,50 173.2,150 86.6,200 "/>
<polygon fill="#FFFFFF" points="86.6,133.3 57.7,116.7 57.7,83.3 86.6,66.7 115.5,83.3 144.3,66.7 86.6,33.3 28.9,66.7 28.9,133.3 
	86.6,166.7 144.3,133.3 115.5,116.7 "/>
<polygon opacity="0.04" stroke="#FFFFFF" stroke-miterlimit="10" enable-background="new    " points="0,50 86.6,100 86.6,0 "/>
<polygon opacity="0.04" stroke="#FFFFFF" stroke-miterlimit="10" enable-background="new    " points="0,150 86.6,200 86.6,100 "/>
<polygon opacity="0.08" stroke="#FFFFFF" stroke-miterlimit="10" enable-background="new    " points="86.6,100 173.2,150 173.2,50 
	"/>
<polygon fill-opacity="0" points="86.6,100 0,50 0,150 "/>
<polygon opacity="0.08" stroke="#FFFFFF" stroke-miterlimit="10" enable-background="new    " points="173.2,150 86.6,100 86.6,200 
	"/>
<polygon opacity="0.08" stroke="#FFFFFF" stroke-miterlimit="10" enable-background="new    " points="173.2,50 86.6,0 86.6,100 "/>
<g>
	<path fill="#333333" d="M290.4,127.3c1,0,1.8,0.4,2.6,1.1l7.2,7.8c-4,4.9-8.8,8.7-14.6,11.3c-5.8,2.6-12.7,3.9-20.8,3.9
		c-7.2,0-13.8-1.2-19.5-3.7c-5.8-2.5-10.7-5.9-14.8-10.3c-4.1-4.4-7.2-9.7-9.4-15.8c-2.2-6.1-3.3-12.8-3.3-20
		c0-7.3,1.2-14.1,3.6-20.1c2.4-6.1,5.8-11.4,10.3-15.8c4.4-4.4,9.7-7.8,15.8-10.3s12.9-3.7,20.4-3.7c7.2,0,13.6,1.2,19,3.5
		s10.1,5.4,13.9,9.2l-6.1,8.4c-0.4,0.5-0.8,1-1.4,1.4s-1.3,0.6-2.3,0.6s-2.1-0.4-3.2-1.2s-2.5-1.7-4.1-2.6c-1.7-0.9-3.8-1.8-6.3-2.6
		c-2.5-0.8-5.8-1.2-9.7-1.2c-4.6,0-8.8,0.8-12.7,2.4c-3.8,1.6-7.2,3.9-9.9,6.9s-4.9,6.6-6.5,10.8c-1.6,4.3-2.3,9-2.3,14.3
		c0,5.5,0.8,10.4,2.3,14.6c1.6,4.3,3.7,7.9,6.3,10.8c2.7,2.9,5.8,5.2,9.4,6.7c3.6,1.6,7.5,2.3,11.6,2.3c2.5,0,4.7-0.1,6.7-0.4
		c2-0.3,3.8-0.7,5.5-1.3s3.3-1.3,4.8-2.3c1.5-0.9,3-2.1,4.5-3.4c0.4-0.4,0.9-0.7,1.4-1C289.3,127.4,289.9,127.3,290.4,127.3z"/>
	<path fill="#333333" d="M407.5,101.5c0,7.2-1.2,13.8-3.6,19.9s-5.7,11.4-10.1,15.8c-4.3,4.5-9.5,7.9-15.6,10.4s-12.8,3.7-20.2,3.7
		c-7.4,0-14.1-1.2-20.2-3.7s-11.3-6-15.7-10.4c-4.3-4.5-7.7-9.7-10.1-15.8c-2.4-6.1-3.6-12.7-3.6-19.9c0-7.2,1.2-13.8,3.6-19.9
		s5.7-11.4,10.1-15.8c4.3-4.5,9.6-7.9,15.7-10.4s12.8-3.7,20.2-3.7c7.4,0,14.1,1.3,20.2,3.8s11.3,6,15.6,10.4
		c4.3,4.4,7.7,9.7,10.1,15.8C406.3,87.7,407.5,94.3,407.5,101.5z M388.9,101.5c0-5.4-0.7-10.2-2.1-14.4c-1.4-4.3-3.5-7.9-6.1-10.8
		c-2.7-3-5.9-5.2-9.7-6.8c-3.8-1.6-8.1-2.4-12.9-2.4s-9.1,0.8-12.9,2.4s-7.1,3.8-9.8,6.8c-2.7,3-4.7,6.6-6.2,10.8
		c-1.4,4.3-2.2,9.1-2.2,14.4c0,5.4,0.7,10.2,2.2,14.4c1.4,4.3,3.5,7.9,6.2,10.8s5.9,5.2,9.8,6.8c3.8,1.6,8.1,2.4,12.9,2.4
		s9.1-0.8,12.9-2.4c3.8-1.6,7-3.8,9.7-6.8c2.7-2.9,4.7-6.5,6.1-10.8C388.2,111.7,388.9,106.9,388.9,101.5z"/>
	<path fill="#333333" d="M440.6,112.2v38.1h-18.2V52.7h29.8c6.7,0,12.4,0.7,17.1,2.1c4.7,1.4,8.6,3.3,11.7,5.8
		c3,2.5,5.3,5.4,6.7,8.9c1.4,3.4,2.1,7.2,2.1,11.4c0,3.3-0.5,6.4-1.5,9.3s-2.4,5.6-4.2,8c-1.8,2.4-4.1,4.5-6.8,6.3
		c-2.7,1.8-5.7,3.2-9.1,4.3c2.3,1.3,4.3,3.2,5.9,5.6l24.4,36h-16.3c-1.6,0-2.9-0.3-4-0.9c-1.1-0.6-2-1.5-2.8-2.7l-20.5-31.3
		c-0.8-1.2-1.6-2-2.5-2.5s-2.3-0.7-4.1-0.7h-7.7V112.2z M440.6,99.1h11.3c3.4,0,6.4-0.4,8.9-1.3s4.6-2,6.3-3.5
		c1.6-1.5,2.9-3.3,3.7-5.4c0.8-2.1,1.2-4.3,1.2-6.8c0-4.9-1.6-8.8-4.9-11.4c-3.3-2.7-8.2-4-15-4h-11.6v32.4H440.6z"/>
	<path fill="#333333" d="M571.8,52.7v14.4h-43.3v27.1h34.1v14h-34.1v27.6h43.3v14.5h-61.6V52.7H571.8z"/>
	<path fill="#61DAFB" d="M626.8,135.7c3.5,0,6.6-0.6,9.4-1.8c2.8-1.2,5.1-2.8,7-4.9c1.9-2.1,3.4-4.7,4.4-7.7s1.5-6.4,1.5-10.1V52.7
		h18.2v58.5c0,5.8-0.9,11.2-2.8,16.1c-1.9,4.9-4.6,9.2-8.1,12.8c-3.5,3.6-7.8,6.4-12.8,8.4s-10.6,3-16.9,3s-11.9-1-16.9-3
		s-9.2-4.8-12.7-8.4c-3.5-3.6-6.2-7.8-8-12.8c-1.9-4.9-2.8-10.3-2.8-16.1V52.7h18.2v58.4c0,3.7,0.5,7.1,1.5,10.1s2.5,5.6,4.4,7.7
		s4.2,3.8,7,5C620.1,135.1,623.3,135.7,626.8,135.7z"/>
	<path fill="#61DAFB" d="M706.2,150.3H688V52.7h18.2V150.3z"/>
</g>
</svg>
