<?xml version="1.0" encoding="UTF-8" standalone="no"?>
<svg width="91px" height="113px" viewBox="0 0 91 113" version="1.1" xmlns="http://www.w3.org/2000/svg" xmlns:xlink="http://www.w3.org/1999/xlink">
    <!-- Generator: Sketch 46.2 (44496) - http://www.bohemiancoding.com/sketch -->
    <title>Page 1</title>
    <desc>Created with Sketch.</desc>
    <defs></defs>
    <g id="Page-1" stroke="none" stroke-width="1" fill="none" fill-rule="evenodd">
        <g id="首页最终定稿" transform="translate(-2032.000000, -1219.000000)" stroke="#5F94EC" stroke-width="0.5" fill="#5F94EC">
            <g id="Group-46" transform="translate(1837.000000, 1220.000000)">
                <g id="Page-1" transform="translate(196.000000, 0.000000)">
                    <path d="M3.86814325,52.532141 L42.5659284,52.532141 L42.5659284,8.03943243 L40.2654089,9.53743112 C34.5568501,13.2554002 28.815586,15.1406719 23.2029131,15.1406719 C22.218038,15.1406719 21.2182969,15.0821737 20.2304487,14.9666582 C15.2993836,14.3838975 10.6024587,12.3764459 6.27049509,8.99835893 L3.86814325,7.12419447 L3.86814325,52.532141 Z M46.4340716,52.532141 L85.1318568,52.532141 L85.1318568,7.34337767 L82.6774738,9.43968726 C78.0355532,13.403497 72.9469082,15.5346093 67.5535094,15.774526 C67.1959812,15.7915572 66.8458859,15.7997025 66.4957907,15.7997025 C59.199539,15.798962 52.8428209,12.3090619 48.7940553,9.38118904 L46.4340716,7.67511441 L46.4340716,52.532141 Z M3.86814325,77.6745274 C3.86814325,90.5382116 12.2250869,93.6438006 24.9742016,96.913777 C31.7196666,98.6457686 38.6940686,100.436999 43.6675018,104.826587 L44.721504,105.758115 L45.7115821,104.758462 C49.9261041,100.505123 56.9086824,98.7901629 63.6615805,97.1307387 C76.2337893,94.0429214 85.1318568,90.955104 85.1318568,79.2924844 L85.1318568,56.3856186 L3.86814325,56.3856186 L3.86814325,77.6745274 Z M44.9541575,111 C44.3379602,111 43.7559548,110.706768 43.3969399,110.215087 C39.2344491,104.551867 31.8393382,102.655488 24.0108823,100.648037 C13.3125376,97.8993609 0,94.4790663 0,77.6745274 L0,1.92599832 C0,1.08184681 0.541867108,0.343584475 1.349093,0.0910795053 C1.5401216,0.0303598351 1.73709661,0 1.93481493,0 C2.56364836,0 3.15383009,0.305079318 3.51284493,0.815272645 C3.79529966,1.19958373 10.3333834,9.95210204 20.7552198,11.1479833 C21.5535261,11.2390629 22.3622386,11.2849728 23.1598016,11.2849728 C29.8190436,11.2842324 36.7220886,8.19345306 43.6786514,2.09853104 C44.0309765,1.78826834 44.4836474,1.61795707 44.9534142,1.61795707 C45.4952813,1.61795707 46.0170792,1.84676655 46.3842704,2.24588731 C46.4630604,2.33400488 55.349235,11.9432629 66.5582281,11.9432629 C66.8443993,11.9432629 67.1320572,11.9365986 67.419715,11.9232699 C74.0009103,11.6152286 80.093013,7.85875439 85.52878,0.75751491 C85.8915113,0.282124321 86.4660837,0 87.0659284,0 C87.2755395,0 87.4851507,0.0348027378 87.6888154,0.101446278 C88.4722556,0.365798989 89,1.09887793 89,1.92599832 L89,79.2924844 C89,94.8730037 75.4689316,98.1977759 64.5966543,100.868701 C56.7644819,102.794699 49.367141,104.612587 46.6830778,109.940368 C46.3827838,110.534976 45.7829391,110.937799 45.1184272,110.991114 C45.0426104,110.99926 44.997269,111 44.9541575,111 L44.9541575,111 Z" id="Fill-1"></path>
                </g>
            </g>
        </g>
    </g>
</svg>