<svg class="icon" viewBox="0 0 1024 1024" xmlns="http://www.w3.org/2000/svg" width="200" height="200"><defs><style/></defs><path d="M226.965 629.12c0 35.272 21.503 84.285 123.835 84.285 102.323 0 189.175-103.168 189.175-103.168s-117.56-65.715-204.655-60.223c-87.11 5.57-108.355 43.84-108.355 79.105z" fill="#1296db"/><path d="M512.015.03C229.262.03.02 229.252.02 512.006c0 282.74 229.242 511.963 511.995 511.963 282.727 0 511.964-229.224 511.964-511.963C1023.98 229.253 794.74.03 512.014.03zM898.167 781.7L608.195 644.22S553.35 704.9 497.418 731.578c-55.935 26.687-120.19 43.327-189.69 26.88-69.565-16.38-118.907-60.856-110.396-142.97 8.512-82.105 96.255-110.393 168.443-110.393 72.18 0 209.205 46.77 209.205 46.77s11.512-25.78 22.718-55.278c11.2-29.5 14.402-53.185 14.402-53.185H320.406v-29.318h141.74v-55.935l-176.695 1.29V322.57h176.513v-83.894h92.79v83.895H744.12v36.866l-189.367 1.273v52.09l156.407 1.282s-2.81 29.256-22.648 82.442c-19.843 53.185-38.396 80.317-38.396 80.317l303.41 99.575s-10.88 28.482-24 53.435c-13.117 24.952-31.36 51.85-31.36 51.85z" fill="#1296db"/></svg>