<svg class="icon" viewBox="0 0 1024 1024" xmlns="http://www.w3.org/2000/svg" width="200" height="200"><defs><style/></defs><path d="M512 0C229.222 0 0 229.222 0 512s229.222 512 512 512 512-229.222 512-512S794.778 0 512 0zm237.26 443.853c-1.023 4.454-3.686 11.06-7.372 18.944h.102l-.41.768c-21.503 45.977-77.618 136.192-77.618 136.192l-.256-.615-16.384 28.57h79L575.387 828.365l34.304-136.5h-62.208l21.606-90.265c-17.46 4.198-38.144 9.984-62.618 17.87 0 0-33.075 19.352-95.334-37.275 0 0-41.984-37.017-17.613-46.233 10.343-3.943 50.227-8.96 81.613-13.16 42.496-5.733 68.557-8.805 68.557-8.805s-130.816 1.945-161.843-2.92c-31.028-4.863-70.4-56.677-78.797-102.194 0 0-12.954-24.985 27.904-13.158 40.857 11.827 209.97 46.08 209.97 46.08s-219.903-67.43-234.597-83.917c-14.644-16.384-43.06-89.805-39.373-134.86 0 0 1.587-11.265 13.158-8.193 0 0 162.61 74.24 273.767 114.944 111.206 40.703 207.872 61.388 195.38 114.073z" fill="#3AA2EB"/></svg>