<svg class="icon" viewBox="0 0 1024 1024" xmlns="http://www.w3.org/2000/svg" width="200" height="200"><defs><style/></defs><path d="M0 512a512 512 0 1 0 1024 0A512 512 0 1 0 0 512z" fill="#E62425"/><path d="M609.472 505.28c59.072 15.36 78.08 48.192 76.736 78.08-4.288 98.368-112.896 166.464-252.224 182.656C315.392 779.776 194.688 721.792 192 603.2c-2.176-96.64 133.696-279.808 249.28-262.208 48.64 7.424 24.576 87.872 26.304 90.496 2.944 4.544 90.112-50.048 130.688-22.4 42.496 28.992.128 93.312 11.2 96.192zm-18.816 106.752c5.696-66.432-67.84-120.32-164.352-120.32S247.04 545.6 241.344 612.032c-5.696 66.496 67.84 120.384 164.288 120.384s179.264-53.952 185.024-120.384zM408 539.968c51.712 0 91.712 37.376 89.472 83.456-2.304 46.08-46.016 83.456-97.728 83.456-51.712 0-91.712-37.376-89.472-83.456 2.304-46.08 46.08-83.456 97.728-83.456zm-31.68 130.88a29.568 29.568 0 0 0 29.312-29.888 29.568 29.568 0 0 0-29.312-29.888 29.568 29.568 0 0 0-29.312 29.888c0 16.512 13.12 29.888 29.312 29.888zM612.096 256C698.048 256 768 327.232 768 414.784a167.424 167.424 0 0 1-7.68 49.472 19.52 19.52 0 0 1-24.448 12.672 19.84 19.84 0 0 1-12.416-24.96 120.832 120.832 0 0 0 5.76-37.184c0-65.728-52.544-119.232-117.056-119.232a113.92 113.92 0 0 0-19.264 1.6 19.456 19.456 0 0 1-22.336-16.32 19.712 19.712 0 0 1 15.936-22.72 155.836 155.836 0 0 1 25.6-2.112zm-1.088 77.568a82.56 82.56 0 0 1 81.664 83.136 85.44 85.44 0 0 1-4.032 25.856 19.52 19.52 0 0 1-24.448 12.672 19.84 19.84 0 0 1-12.416-24.96 43.968 43.968 0 0 0 2.112-13.632 43.264 43.264 0 0 0-49.856-43.072 19.328 19.328 0 0 1-22.4-16.192 19.776 19.776 0 0 1 16-22.72 85.12 85.12 0 0 1 13.376-1.088z" fill="#FFF"/></svg>