<?xml version="1.0" standalone="no"?><!DOCTYPE svg PUBLIC "-//W3C//DTD SVG 1.1//EN" "http://www.w3.org/Graphics/SVG/1.1/DTD/svg11.dtd"><svg t="1539010043564" class="icon" style="" viewBox="0 0 1025 1024" version="1.1" xmlns="http://www.w3.org/2000/svg" p-id="30708" xmlns:xlink="http://www.w3.org/1999/xlink" width="200.1953125" height="200"><defs><style type="text/css"></style></defs><path d="M990.007709 892c-11.2 0-22-5.9-27.8-16.2C841.707709 664.3 672.307709 639.2 448.007709 637.4l0 198.6c0 12.6-7.3 24-18.8 29.1-11.4 5.2-24.8 3.2-34.3-5.1l-384-336c-6.8-6-10.8-14.5-10.9-23.5-0.2-9 3.5-17.7 10.1-23.9l384-360c9.3-8.7 22.9-11.1 34.6-6 11.7 5.1 19.3 16.6 19.3 29.4l0 168.8c100.4 5 191.9 33.7 272.4 85.6 70.8 45.6 133 108.9 184.8 188.2 87.3 133.6 114.9 265.6 116.1 271.1 3.1 15.4-5.4 30.8-20.1 36.3C997.607709 891.3 993.807709 892 990.007709 892zM79.707709 499.1 384.007709 765.4 384.007709 605.2c0-17.7 14.3-32 32-32 136.7 0 247.4 7.2 343.5 42.1 50.9 18.5 95.2 43.8 135.2 77.1-12.5-24.9-27-50.8-44-76.6C744.207709 454 598.007709 372 416.007709 372c-17.7 0-32-14.3-32-32l0-126.2L79.707709 499.1z" p-id="30709" fill="#ffffff"></path></svg>