<?xml version="1.0" standalone="no"?><!DOCTYPE svg PUBLIC "-//W3C//DTD SVG 1.1//EN" "http://www.w3.org/Graphics/SVG/1.1/DTD/svg11.dtd"><svg t="1539009982956" class="icon" style="" viewBox="0 0 1024 1024" version="1.1" xmlns="http://www.w3.org/2000/svg" p-id="24138" xmlns:xlink="http://www.w3.org/1999/xlink" width="200" height="200"><defs><style type="text/css"></style></defs><path d="M256 678.4V256h64v64h288l128-128H640c0-70.4-57.6-128-128-128s-128 57.6-128 128H256c-35.2 0-64 28.8-64 64v480l64-57.6zM512 160c17.6 0 32 14.4 32 32s-14.4 32-32 32-32-14.4-32-32 14.4-32 32-32z m396 43.2l-45.6-45.6-753.6 753.6 45.6 45.6 40.8-40.8c8 25.6 32.8 44.8 60.8 44.8h512c35.2 0 64-28.8 64-64V278.4l76-75.2zM768 896H256v-40l512-519.2V896z" p-id="24139" fill="#ffffff"></path></svg>