<?xml version="1.0" standalone="no"?><!DOCTYPE svg PUBLIC "-//W3C//DTD SVG 1.1//EN" "http://www.w3.org/Graphics/SVG/1.1/DTD/svg11.dtd"><svg t="1539010073184" class="icon" style="" viewBox="0 0 1044 1024" version="1.1" xmlns="http://www.w3.org/2000/svg" p-id="32193" xmlns:xlink="http://www.w3.org/1999/xlink" width="203.90625" height="200"><defs><style type="text/css"></style></defs><path d="M16.384 157.696q-11.264-8.192-14.336-13.312t-3.072-14.336l0-9.216q0-26.624 13.312-41.984t46.08-15.36l843.776 1.024q33.792 0 47.104 14.336t13.312 39.936l1.024 11.264q0 9.216-2.048 12.8t-16.384 14.848l-418.816 251.904q-10.24 4.096-25.088 11.264t-19.968 8.192q-6.144 0-18.432-5.632t-27.648-14.848zM646.144 572.416q-21.504 0-34.816 9.216t-20.992 23.552-10.24 32.256-2.56 34.304l0 71.68 0 12.288q0 6.144 1.024 11.264l-141.312 0q-72.704 0-136.192-0.512t-111.616-0.512l-70.656 0q-36.864 0-60.416-9.728t-36.864-25.088-18.432-35.328-5.12-41.472l0-378.88q0-21.504 10.24-27.136t25.6 5.632q5.12 3.072 18.432 11.776t31.744 19.968 38.4 24.064 37.888 24.064 30.72 19.456 16.896 10.24q14.336 9.216 16.384 23.04t-3.072 24.064q-4.096 10.24-12.288 26.624t-17.408 33.28-17.92 32.256-11.776 23.552q-5.12 14.336 2.048 19.456t22.528-4.096q3.072-2.048 16.896-15.872t29.184-30.72 29.184-31.744 18.944-17.92q9.216-8.192 24.064-11.776t26.112 2.56q7.168 4.096 19.456 12.288t27.136 17.92 30.208 19.968l27.648 18.432q12.288 8.192 26.112 10.24t26.624 1.024 23.04-4.608 15.36-6.656 19.456-11.776 31.232-18.944 31.744-19.456 22.016-13.312l129.024-79.872q2.048-1.024 12.8-8.192t26.624-17.408 34.816-22.528 35.84-23.04 31.232-19.968 20.48-13.312q19.456-12.288 30.208-9.728t10.752 16.896l0 266.24q-28.672-23.552-55.808-44.032t-49.664-34.816q-22.528-15.36-39.424-10.752t-27.648 19.968-16.384 35.84-5.632 36.864q0 11.264-0.512 18.432t-0.512 12.288q-1.024 5.12-1.024 8.192l-15.36 0-104.448 0zM1028.096 679.936q13.312 10.24 13.824 28.672t-10.752 26.624q-15.36 12.288-35.84 29.184t-42.496 34.304-43.008 34.816-38.4 30.72q-21.504 17.408-30.208 18.432t-8.704-26.624l0-46.08q0-17.408-8.704-28.672t-23.04-11.264l-118.784 0q-14.336 0-28.16-10.24t-13.824-26.624l0-52.224q0-28.672 9.216-34.816t32.768-6.144l20.48 0q9.216 0 20.992 0.512t28.16 0.512l43.008 0q20.48 0 29.184-7.168t8.704-25.6l0-45.056q0-18.432 6.144-23.552t22.528 8.192q16.384 12.288 37.888 29.696t44.544 35.328 45.056 35.84 39.424 31.232z" p-id="32194" fill="#ffffff"></path></svg>