<?xml version="1.0" encoding="UTF-8"?>
<svg width="122px" height="122px" viewBox="0 0 122 122" version="1.1" xmlns="http://www.w3.org/2000/svg" xmlns:xlink="http://www.w3.org/1999/xlink">
    <!-- Generator: Sketch 47 (45396) - http://www.bohemiancoding.com/sketch -->
    <title>Group 15</title>
    <desc>Created with Sketch.</desc>
    <defs></defs>
    <g id="Page-1" stroke="none" stroke-width="1" fill="none" fill-rule="evenodd">
        <g id="首页最终定稿-copy" transform="translate(-969.000000, -2034.000000)" fill="#3C90EA">
            <g id="Group-15" transform="translate(970.000000, 2035.000000)">
                <circle id="Oval-12-Copy" stroke="#3C90EA" fill-opacity="0.1" cx="60" cy="60" r="60"></circle>
                <g id="Page-1" transform="translate(28.346457, 34.015748)">
                    <path d="M10.7936412,21.7853667 L10.1096421,21.7853667 C9.1449735,21.7853667 8.36131333,22.6158853 8.36131333,23.6360161 L8.36131333,40.5093569 C8.36131333,41.5303457 9.1449735,42.3604353 10.1096421,42.3604353 L10.7936412,42.3604353 C11.7583098,42.3604353 12.54197,41.5303457 12.54197,40.5093569 L12.54197,23.6360161 C12.54197,22.6158853 11.7583098,21.7853667 10.7936412,21.7853667" id="Fill-1"></path>
                    <path d="M41.6390659,28.4432827 C40.5010817,28.4015631 39.5782018,29.3875821 39.5376629,30.6880684 L39.4189419,34.5213406 C39.3792304,35.8204812 40.23882,36.8715469 41.3768042,36.912818 C42.515202,36.9545376 43.4380819,35.96807 43.4782072,34.6689294 L43.5969282,30.8356573 C43.6370534,29.5356195 42.7770501,28.4845538 41.6390659,28.4432827" id="Fill-6"></path>
                    <path d="M59.1074314,35.5021411 C59.1074314,37.0888875 58.0983677,38.4350063 56.6748138,38.7693564 L56.6119345,38.7872291 C56.4921643,38.8316929 56.3227751,38.8395394 56.0524367,38.8395394 L37.4281762,38.8395394 C35.7150351,38.8395394 34.3731815,37.3735428 34.3731815,35.5021411 L34.3731815,29.5383289 C34.3731815,27.6660555 35.7150351,26.2004947 37.4281762,26.2004947 L56.0524367,26.2004947 C56.3227751,26.2004947 56.4921643,26.2092131 56.5909747,26.2458303 L56.653854,26.2650108 C58.0983677,26.6058997 59.1074314,27.9511467 59.1074314,29.5383289 L59.1074314,35.5021411 Z M52.9225857,45.9380496 C52.9225857,47.8103231 51.5798766,49.2763198 49.8667355,49.2763198 L7.25422217,49.2763198 C5.54065333,49.2763198 4.19965525,47.8103231 4.19965525,45.9380496 L4.19965525,19.1015486 C4.19965525,17.3234337 5.6266312,15.7641503 7.25422217,15.7641503 L49.8667355,15.7641503 C51.5798766,15.7641503 52.9225857,17.2292751 52.9225857,19.1015486 L52.9225857,21.6935249 L37.4281762,21.6935249 C33.4282805,21.6935249 30.1735263,25.2127015 30.1735263,29.5383289 L30.1735263,35.5021411 C30.1735263,39.8273326 33.4282805,43.3465093 37.4281762,43.3465093 L52.9225857,43.3465093 L52.9225857,45.9380496 Z M38.1703235,4.50740575 L38.3196084,4.50740575 C38.8453139,4.50740575 40.0434433,5.37924439 40.5605937,7.48909389 L41.4182337,11.3312868 L18.5032071,11.3312868 L10.6933369,11.7698216 L38.1703235,4.50740575 Z M57.4208108,21.8072998 L57.1205299,21.7401683 L57.1205299,19.0265705 C57.1205299,14.701379 53.8666312,11.1822024 49.8667355,11.1822024 L45.7650351,11.1822024 L45.6923175,10.8875209 C45.0143328,8.12074098 44.6015535,6.26285285 44.6015535,6.26285285 C43.7473356,2.63382452 41.1051202,0 38.3196084,0 C37.9269334,0 37.6082592,0.0584131887 37.2352607,0.12772436 L37.1274675,0.145161133 L4.19195574,10.1547405 C1.61219196,10.9311128 -0.0564630773,14.004344 0.133458183,17.6255258 L0.135596936,17.6660663 L0.129608427,17.705735 C0.0654458395,18.1338077 0,18.6429615 0,19.1765267 L0,46.0130277 C0,50.3382192 3.2538987,53.8582677 7.25422217,53.8582677 L49.8667355,53.8582677 C53.8666312,53.8582677 57.1205299,50.3382192 57.1205299,46.0130277 L57.1205299,43.2322984 L57.4276548,43.1699619 C60.8342605,42.4755425 63.3070866,39.2510473 63.3070866,35.5021411 L63.3070866,29.5383289 C63.3070866,25.8168857 60.831694,22.5649276 57.4208108,21.8072998 L57.4208108,21.8072998 Z" id="Fill-3"></path>
                </g>
            </g>
        </g>
    </g>
</svg>