<?xml version="1.0" encoding="UTF-8" standalone="no"?>
<svg width="538px" height="360px" viewBox="0 0 538 360" version="1.1" xmlns="http://www.w3.org/2000/svg" xmlns:xlink="http://www.w3.org/1999/xlink">
    <!-- Generator: Sketch 46.2 (44496) - http://www.bohemiancoding.com/sketch -->
    <title>Group 14</title>
    <desc>Created with Sketch.</desc>
    <defs>
        <linearGradient x1="100%" y1="100%" x2="0%" y2="0%" id="linearGradient-1">
            <stop stop-color="#43C8FE" offset="0%"></stop>
            <stop stop-color="#8ADDFF" offset="100%"></stop>
        </linearGradient>
    </defs>
    <g id="Page-1" stroke="none" stroke-width="1" fill="none" fill-rule="evenodd">
        <g id="首页最终定稿" transform="translate(-242.000000, -4074.000000)">
            <g id="Group-14" transform="translate(242.000000, 4074.000000)">
                <path d="M2,0 L536,0 L536,0 C537.104569,-2.02906125e-16 538,0.8954305 538,2 L538,360 L0,360 L0,2 L0,2 C-1.3527075e-16,0.8954305 0.8954305,2.02906125e-16 2,0 Z" id="Rectangle" fill="url(#linearGradient-1)"></path>
                <g id="Page-1" transform="translate(89.000000, 134.000000)" fill="#FEFEFE">
                    <path d="M276.119661,14.6949153 L274.120856,14.6949153 C272.497206,14.6949153 271.022404,15.3577482 269.950096,16.4261501 L269.937945,16.4261501 C268.873232,17.4869855 268.212533,18.9564165 268.212533,20.5802058 L268.212533,46.5835351 C268.212533,48.1997579 268.87627,49.6707022 269.950096,50.7391041 C271.022404,51.8075061 272.497206,52.470339 274.120856,52.470339 L276.119661,52.470339 C277.741792,52.470339 279.218113,51.8075061 280.290421,50.7391041 C281.362728,49.6707022 282.027984,48.1997579 282.027984,46.5835351 L282.027984,20.5802058 C282.027984,18.9654964 281.362728,17.4945521 280.290421,16.4261501 C279.218113,15.3577482 277.741792,14.6949153 276.119661,14.6949153 L276.119661,14.6949153 Z M298.645712,43.7354722 C298.645712,45.2820823 297.388105,46.535109 295.83736,46.535109 C294.286616,46.535109 293.029008,45.2820823 293.029008,43.7354722 L293.029008,14.5420702 C293.029008,11.3822639 294.324587,8.50998789 296.411485,6.43069007 C298.498384,4.34987893 301.38116,3.05901937 304.554036,3.05901937 L323.999861,3.05901937 C327.171218,3.05901937 330.053994,4.35290557 332.140892,6.43069007 C334.22931,8.51150121 335.524888,11.3852906 335.524888,14.5420702 L335.524888,43.7354722 C335.524888,45.2820823 334.2688,46.535109 332.718055,46.535109 C331.165791,46.535109 329.908184,45.2820823 329.908184,43.7354722 L329.908184,43.7097458 L329.908184,14.5420702 C329.908184,12.9288741 329.242928,11.4579298 328.169102,10.3880145 C327.096794,9.31961259 325.620473,8.65677966 323.999861,8.65677966 L304.554036,8.65677966 C302.931905,8.65677966 301.457102,9.31961259 300.384795,10.3865012 C299.312487,11.4549031 298.645712,12.9273608 298.645712,14.5420702 L298.645712,43.4070823 L298.645712,43.7354722 Z M336.249379,61.6970339 C337.30346,62.8244552 337.239669,64.5920097 336.106607,65.6437651 C334.973546,66.6940073 333.19953,66.6289346 332.145449,65.5015133 L314.134936,46.0871671 C310.419831,54.312046 304.200144,61.3489709 294.471915,66.3262712 C293.095838,67.026937 291.409915,66.4836562 290.706688,65.1125908 C290.006499,63.7430387 290.550247,62.06477 291.924805,61.3641041 C292.946991,60.8404964 293.917535,60.2730024 294.83492,59.6797821 C311.361517,49.0063559 311.361517,33.6310533 311.726041,24.9022397 C311.877926,21.2702785 311.123058,18.973063 311.118501,18.9458232 C310.870929,17.4249395 311.906784,15.9903148 313.433228,15.7421308 C314.96119,15.49546 316.401059,16.5275424 316.65015,18.0499395 C316.659263,18.1195521 319.138025,24.2742131 315.187498,39.1440678 C315.321157,39.2424334 315.447221,39.3559322 315.564173,39.4815375 L336.249379,61.6970339 Z M189.028852,23.1725182 C188.68863,23.6174334 188.239051,23.9322034 187.743906,24.1062349 C186.8812,24.4119249 185.884835,24.2908596 185.101109,23.6961259 C183.87236,22.7608959 183.635419,21.0084746 184.575587,19.7826877 L196.466657,4.23335351 C197.405305,3.00756659 199.164133,2.77300242 200.3944,3.70823245 C201.114335,4.25756659 201.494047,5.08686441 201.495566,5.92826877 L201.501641,5.92826877 L201.501641,65.2018765 C201.501641,66.7469734 200.244034,68 198.693289,68 C197.142544,68 195.884937,66.7469734 195.884937,65.2018765 L195.884937,52.5520581 L195.884937,14.2076271 L189.028852,23.1725182 Z M248.361175,5.79812349 C248.361175,4.25302663 249.618782,3 251.169527,3 C252.72179,3 253.979397,4.25302663 253.979397,5.79812349 L253.979397,8.78692494 L257.282894,8.78692494 C258.83212,8.78692494 260.089728,10.0399516 260.089728,11.5850484 C260.089728,13.1301453 258.83212,14.3831719 257.282894,14.3831719 L253.979397,14.3831719 L253.979397,54.0562954 C253.979397,57.2070218 252.679263,60.0777845 250.587807,62.1631356 L250.593883,62.1691889 C248.506984,64.2484867 245.625727,65.5408596 242.452852,65.5408596 L229.659585,65.5408596 C228.10884,65.5408596 226.851233,64.2878329 226.851233,62.7412228 C226.851233,61.1961259 228.10884,59.9430993 229.659585,59.9430993 L230.741006,59.9430993 L242.452852,59.9430993 C244.073464,59.9430993 245.551304,59.2802663 246.622092,58.2118644 L246.634243,58.2118644 C247.698956,57.1510291 248.361175,55.6800847 248.361175,54.0562954 L248.361175,22.5762712 L248.361175,14.3831719 L206.497136,14.3831719 C204.94791,14.3831719 203.688784,13.1301453 203.688784,11.5850484 C203.688784,10.0399516 204.94791,8.78692494 206.497136,8.78692494 L248.361175,8.78692494 L248.361175,5.79812349 Z M274.120856,9.09715496 L276.119661,9.09715496 C279.292537,9.09715496 282.173794,10.3880145 284.262211,12.4688257 C286.34911,14.5481235 287.646207,17.4203995 287.646207,20.5802058 L287.646207,46.5835351 C287.646207,49.7448547 286.34911,52.6171308 284.262211,54.6964286 C282.173794,56.7757264 279.292537,58.0680993 276.119661,58.0680993 L274.120856,58.0680993 C270.94798,58.0680993 268.063685,56.7757264 265.976787,54.6964286 C263.889888,52.6171308 262.59431,49.7448547 262.59431,46.5835351 L262.59431,20.5802058 C262.59431,17.4294794 263.892926,14.56023 265.982862,12.4748789 L265.976787,12.4688257 C268.063685,10.3880145 270.94798,9.09715496 274.120856,9.09715496 L274.120856,9.09715496 Z" id="Fill-1"></path>
                    <path d="M236.25819,45.2713932 C237.30065,46.4085012 237.23606,48.1888526 236.116992,49.2466984 C234.996422,50.3045441 233.241964,50.2405246 232.199504,49.1034167 L211.742346,26.7270825 C210.699885,25.5914988 210.762974,23.8111474 211.883543,22.7533016 C213.004113,21.6954559 214.758571,21.7594754 215.801031,22.8965833 L236.25819,45.2713932 Z" id="Fill-3"></path>
                    <path d="M274,78.298047 C274,77.8944525 274.096291,77.5781218 274.291477,77.3443798 C274.482759,77.1153127 274.716981,77 274.988939,77 C275.268705,77 275.509434,77.1106379 275.705921,77.3303553 C275.901106,77.5500727 276,77.852379 276,78.2435072 L276,90.7580511 C276,91.1491793 275.901106,91.4499273 275.702017,91.671203 C275.501627,91.8909204 275.264802,92 274.988939,92 C274.724789,92 274.490566,91.8909204 274.295381,91.6665282 C274.100195,91.4421359 274,91.1398296 274,90.7580511 L274,78.298047 Z" id="Fill-5"></path>
                    <path d="M275.514019,75 C275.105919,75 274.753894,74.8502316 274.450156,74.5460628 C274.152648,74.24035 274,73.891405 274,73.494596 C274,73.1008749 274.147975,72.753474 274.445483,72.4539372 C274.739875,72.1497684 275.096573,72 275.514019,72 C275.917445,72 276.266355,72.1497684 276.560748,72.4446732 C276.852025,72.741122 277,73.0900669 277,73.494596 C277,73.8960371 276.852025,74.244982 276.556075,74.5460628 C276.261682,74.8502316 275.912773,75 275.514019,75" id="Fill-7"></path>
                    <path d="M228,78.243378 C228,77.8631973 228.107988,77.5593643 228.331361,77.3349953 C228.547337,77.1106264 228.813609,77 229.122781,77 C229.440828,77 229.714497,77.1106264 229.93787,77.330321 C230.159763,77.5500156 230.272189,77.8538486 230.272189,78.243378 L230.272189,86.2521035 C230.272189,87.3661577 230.538462,88.2558429 231.073964,88.918043 C231.606509,89.5786849 232.402367,89.9090059 233.460059,89.9090059 C235.637574,89.9090059 236.726331,88.6889997 236.726331,86.2521035 L236.726331,78.243378 C236.726331,77.8631973 236.835799,77.5593643 237.057692,77.3349953 C237.276627,77.1106264 237.54142,77 237.850592,77 C238.168639,77 238.443787,77.1106264 238.664201,77.330321 C238.886095,77.5500156 239,77.8538486 239,78.243378 L239,86.3019632 C239,87.3116236 238.809172,88.2464942 238.426036,89.1096915 C238.04142,89.9775631 237.431953,90.6740418 236.596154,91.2022437 C235.755917,91.7335619 234.692308,92 233.408284,92 C232.198225,92 231.186391,91.7429106 230.37574,91.2256155 C229.568047,90.7067622 228.965976,90.0180742 228.578402,89.1517607 C228.190828,88.2901215 228,87.3396697 228,86.3019632 L228,78.243378 Z" id="Fill-9"></path>
                    <path d="M206.589452,74.0078746 L204.123061,74.0078746 C203.798862,74.0078746 203.538263,73.9106229 203.336608,73.7221041 C203.136505,73.5320891 203.02637,73.3031735 203,73.0248838 C203.02637,72.7346248 203.141158,72.4877549 203.341262,72.2932514 C203.54757,72.0957556 203.82213,72 204.177353,72 L208.319028,72 C208.624612,72 208.818511,72.0523663 208.889866,72.1615875 C208.962771,72.2678164 209,72.4353886 209,72.6553272 L209,89.7536814 C209,90.1501693 208.877456,90.4598787 208.633919,90.6753288 C208.393485,90.8907788 208.10031,91 207.766805,91 C207.46122,91 207.188211,90.8907788 206.944674,90.6708402 C206.707342,90.4464131 206.589452,90.1411922 206.589452,89.7536814 L206.589452,74.0078746 Z" id="Fill-11"></path>
                    <path d="M260.270128,85.6521146 L269.068188,80.6891594 C268.718129,80.2924756 268.306471,79.9516214 267.845234,79.6768811 C267.065488,79.2126141 266.146018,78.9437507 265.158941,78.9437507 C263.73166,78.9437507 262.43659,79.5093924 261.502097,80.4247035 C260.566101,81.3400147 259.989179,82.6035261 259.989179,83.9992654 C259.989179,84.5795991 260.086835,85.1334872 260.270128,85.6521146 M270.970228,82.2230035 L261.493082,87.5679505 L261.502097,87.5752965 C262.43659,88.4906076 263.73166,89.0562493 265.158941,89.0562493 C266.291751,89.0562493 267.33592,88.7051107 268.183274,88.1056774 C269.057672,87.4900829 269.72624,86.6144401 270.07029,85.5977542 C270.235554,85.1114493 270.755385,84.8396474 271.254182,84.9630601 L271.320288,84.9821597 C271.840118,85.1496484 272.121067,85.6976598 271.949794,86.2045335 C271.470528,87.6149648 270.546551,88.8285235 269.338621,89.6791898 C268.160738,90.5092874 266.715428,91 265.158941,91 C263.181781,91 261.390919,90.2169168 260.097352,88.950467 C258.80078,87.6840172 258,85.9327317 258,83.9992654 C258,82.0672683 258.80078,80.3159828 260.097352,79.049533 C261.390919,77.7845524 263.181781,77 265.158941,77 C266.517111,77 267.791148,77.3731766 268.877384,78.0210935 C269.998175,78.68811 270.916142,79.6504355 271.520107,80.7934726 C271.820587,81.3664603 271.479542,81.9350404 270.970228,82.2230035" id="Fill-13"></path>
                    <path d="M245.514829,80.4803606 C245.546167,82.7430811 245.558702,85.0087809 245.514829,87.326617 C245.915949,87.7511564 246.393844,88.1131321 246.925014,88.3931791 C247.694348,88.7983536 248.582764,89.0292434 249.533856,89.0292434 C251.023951,89.0292434 252.373027,88.4557428 253.347622,87.5277146 C254.323783,86.5996864 254.928595,85.3186201 254.928595,83.9019992 C254.928595,82.4868679 254.323783,81.2058016 253.347622,80.2777734 C252.373027,79.3512348 251.023951,78.7762446 249.533856,78.7762446 C248.747286,78.7762446 248.003022,78.9326539 247.337101,79.2156801 C246.639843,79.5121129 246.017795,79.94559 245.517963,80.4773814 L245.514829,80.4803606 Z M245.411416,89.8157585 L245.406715,89.8649157 C245.406715,90.2105057 245.286066,90.4875735 245.041634,90.6916503 C244.798769,90.8987064 244.507331,91 244.162619,91 C243.857079,91 243.58601,90.8942376 243.349412,90.6797334 C243.115949,90.4652293 243,90.1762446 243,89.8112897 L243,73.2065857 C243,72.5347707 243.424622,72 244.162619,72 C244.899049,72 245.408282,72.4468836 245.408282,73.1574285 C245.408282,75.2860839 245.441186,75.8744806 245.475658,77.94951 C245.8,77.749902 246.140011,77.5726382 246.495691,77.4221874 C247.429547,77.0259506 248.458982,76.805488 249.533856,76.805488 C251.597426,76.805488 253.46357,77.6009408 254.814214,78.8849863 C256.164857,80.1690318 257,81.9431595 257,83.9019992 C257,85.8623285 256.164857,87.6379459 254.814214,88.9219914 C253.46357,90.2045472 251.597426,91 249.533856,91 C248.228651,91 246.995523,90.6767542 245.922216,90.1107017 C245.746726,90.0183457 245.575937,89.9200314 245.411416,89.8157585 L245.411416,89.8157585 Z" id="Fill-15"></path>
                    <path d="M189.908297,73.0190894 C190.001093,72.5214291 190.082878,72.2228329 190.147363,72.1366709 C190.216567,72.0445666 190.435186,72 190.795358,72 L197.794327,72 C198.108888,72 198.35739,72.0965609 198.542981,72.2926539 C198.73329,72.4902325 198.826085,72.7353487 198.826085,73.0190894 C198.826085,73.2954022 198.726999,73.5212063 198.533544,73.7098715 C198.338517,73.8985367 198.074286,73.9950977 197.737706,73.9950977 L192.158977,73.9950977 L191.348984,78.5052366 L191.455935,78.4591844 C192.393325,78.0640273 193.426656,77.8441655 194.508744,77.8441655 C196.576978,77.8441655 198.451758,78.6359652 199.805941,79.9165119 C201.161696,81.1970586 202,82.9663522 202,84.92134 C202,86.8763277 201.161696,88.6456213 199.805941,89.926168 C198.451758,91.2067147 196.576978,92 194.508744,92 C193.197027,92 191.959231,91.6761494 190.880289,91.1116393 C189.769891,90.5322736 188.830928,89.6884795 188.157769,88.6708757 C187.854218,88.2118399 188.002061,87.6087053 188.486484,87.3219936 C188.969334,87.0367674 189.611038,87.1764094 189.913016,87.6339597 C190.399012,88.3678229 191.080035,88.9768997 191.888455,89.4002823 C192.659128,89.8028671 193.550907,90.0346134 194.508744,90.0346134 C196.002906,90.0346134 197.355515,89.4611899 198.333798,88.537176 C199.313654,87.6116764 199.920756,86.3326153 199.920756,84.92134 C199.920756,83.5100646 199.313654,82.2310035 198.333798,81.3069895 C197.355515,80.38149 196.002906,79.8080666 194.508744,79.8080666 C193.716051,79.8080666 192.96897,79.9655352 192.300529,80.2463047 C191.600632,80.5419297 190.979376,80.9742257 190.474506,81.5045681 C190.092315,81.9071529 189.438029,81.9413207 189.0118,81.5818168 C188.672075,81.2936195 188.57928,80.8420114 188.750715,80.4661665 C188.761725,80.4022878 188.768016,80.3369234 188.768016,80.2700735 L189.908297,73.0190894 Z" id="Fill-17"></path>
                    <path d="M284,89 C284.270471,89 284.506203,89.0980757 284.700993,89.2979516 C284.901985,89.4928616 285,89.7299814 285,90.0006207 C285,90.2662942 284.898263,90.4972067 284.69727,90.6995655 C284.496278,90.8994413 284.264268,91 284,91 C283.734491,91 283.503722,90.8994413 283.301489,90.6933582 C283.100496,90.4909994 283,90.2588454 283,90.0006207 C283,89.7361887 283.098015,89.5027933 283.297767,89.3004345 C283.493797,89.1018001 283.728288,89 284,89" id="Fill-19"></path>
                    <path d="M312.820561,82.179439 C311.969252,81.3296561 310.796033,80.8048351 309.499237,80.8048351 C308.203967,80.8048351 307.029222,81.3296561 306.179439,82.179439 C305.329656,83.0292219 304.804835,84.2039667 304.804835,85.5007628 C304.804835,86.7960333 305.329656,87.9707781 306.179439,88.820561 C307.029222,89.6703439 308.203967,90.1951649 309.499237,90.1951649 C310.796033,90.1951649 311.969252,89.6703439 312.820561,88.820561 C313.670344,87.9707781 314.195165,86.7960333 314.195165,85.5007628 C314.195165,84.2039667 313.670344,83.0292219 312.820561,82.179439 M309.499237,79 C311.294918,79 312.919728,79.7277315 314.095998,80.9040019 C315.272269,82.0787466 316,83.7050816 316,85.5007628 C316,87.2949184 315.272269,88.9197277 314.095998,90.0959981 C312.919728,91.2722685 311.294918,92 309.499237,92 C307.703556,92 306.078747,91.2722685 304.904002,90.0959981 C303.727731,88.9197277 303,87.2949184 303,85.5007628 C303,83.7050816 303.727731,82.0787466 304.904002,80.9040019 C306.078747,79.7277315 307.703556,79 309.499237,79" id="Fill-21"></path>
                    <path d="M299.36074,87.9921371 C299.574768,87.6473419 299.981721,87.4993545 300.349487,87.6030982 C300.430878,87.6244572 300.509254,87.659547 300.584616,87.7068419 C300.999106,87.9692524 301.124206,88.5230607 300.864962,88.944138 C300.286183,89.8793569 299.482826,90.6543833 298.53176,91.1868325 C297.606317,91.705551 296.546731,92 295.422332,92 C293.649823,92 292.043109,91.2737942 290.88103,90.0959981 C289.720459,88.9212534 289,87.2949184 289,85.5007628 C289,83.7050816 289.720459,82.0802723 290.88103,80.9040019 C292.043109,79.7277315 293.649823,79 295.422332,79 C296.349283,79 297.23403,79.2029105 298.037387,79.5660134 C298.866367,79.9397958 299.603405,80.4890271 300.203285,81.1648868 C300.528848,81.5340922 300.498703,82.1031569 300.133952,82.4326957 C299.996794,82.5562727 299.832505,82.6295036 299.663695,82.6539139 C299.381841,82.6935806 299.083409,82.5944138 298.879932,82.3640418 C298.448862,81.8758362 297.913794,81.4791691 297.313914,81.2076047 C296.741164,80.9497712 296.100589,80.8048351 295.422332,80.8048351 C294.141182,80.8048351 292.982117,81.3311818 292.142587,82.179439 C291.303057,83.0307476 290.784567,84.2039667 290.784567,85.5007628 C290.784567,86.797559 291.303057,87.9707781 292.142587,88.820561 C292.982117,89.6703439 294.141182,90.1966905 295.422332,90.1966905 C296.242269,90.1966905 297.006438,89.9846262 297.668114,89.6138951 C298.359935,89.2263819 298.944743,88.6649454 299.36074,87.9921371" id="Fill-23"></path>
                    <path d="M318,80.0253223 C318,79.7384133 318.101913,79.5043559 318.307238,79.3216401 C318.517059,79.1389244 318.770343,79.0468115 319.065591,79.0468115 C319.357842,79.0468115 319.597637,79.1389244 319.783479,79.31711 C319.96932,79.4968057 320.060742,79.7671042 320.060742,80.1204553 L320.060742,80.522128 L320.107203,80.522128 C320.901525,79.508886 321.982103,79 323.350436,79 C324.795204,79.0437914 325.923742,79.7580439 326.736049,81.1457777 C327.30856,80.3469625 327.912545,79.7897549 328.555497,79.4726449 C329.199947,79.158555 329.916336,79 330.70916,79 C331.491493,79.0196306 332.206383,79.2144268 332.859825,79.5843884 C333.516266,79.9528401 334.036322,80.4858869 334.422992,81.1774887 C334.806665,81.8736206 335,82.6814961 335,83.6041352 L335,90.9701475 C335,91.2842374 334.896588,91.5349053 334.688266,91.7221512 C334.478445,91.9078871 334.229657,92 333.929913,92 C333.669135,92 333.436833,91.904867 333.227012,91.713091 C333.01869,91.522825 332.915278,91.2766872 332.915278,90.9701475 L332.915278,83.7415495 C332.915278,83.12243 332.801375,82.5848531 332.569073,82.1439192 C332.339769,81.6984551 332.023539,81.3647346 331.626378,81.1427576 C331.226219,80.9238007 330.781098,80.8120571 330.288019,80.8120571 C329.490699,80.8120571 328.83276,81.0461145 328.306709,81.5157393 C327.782156,81.980834 327.518381,82.7252875 327.518381,83.7415495 L327.518381,90.9746777 C327.518381,91.2797073 327.41497,91.5182948 327.206647,91.6949704 C326.996826,91.8640957 326.745041,91.9516785 326.45279,91.9516785 C326.184519,91.9516785 325.947721,91.8640957 325.742396,91.6859101 C325.537071,91.5107446 325.435158,91.272157 325.435158,90.9746777 L325.435158,83.8412127 C325.435158,82.8083401 325.177378,82.044256 324.669311,81.5519805 C324.159746,81.0581949 323.521291,80.8120571 322.75994,80.8120571 C322.250375,80.8316878 321.796262,80.9358811 321.399101,81.1261471 C320.998942,81.3164131 320.675218,81.6199326 320.430927,82.0291555 C320.182139,82.4429086 320.060742,82.963875 320.060742,83.6041352 L320.060742,90.9701475 C320.060742,91.2842374 319.958829,91.5349053 319.752006,91.7221512 C319.542185,91.9078871 319.297893,92 319.019131,92 C318.749361,92 318.514062,91.904867 318.307238,91.713091 C318.101913,91.522825 318,91.2766872 318,90.9701475 L318,80.0253223 Z" id="Fill-25"></path>
                    <path d="M218.908809,89.8400255 C218.908809,90.4790715 218.37728,91 217.721779,91 C217.069377,91 216.537847,90.4790715 216.537847,89.8400255 L216.537847,82.1366436 L214.185481,82.1366436 C213.531529,82.1366436 213,81.6172294 213,80.9766691 C213,80.337623 213.531529,79.8182089 214.185481,79.8182089 L216.582787,79.8182089 C216.782692,77.9056138 217.622601,76.1686806 218.888664,74.8179008 C220.36083,73.2460293 222.407915,72.1996293 224.688997,72.0042811 C225.341399,71.9497654 225.916319,72.4222354 225.973656,73.0597671 C226.029443,73.6972988 225.545953,74.2591142 224.893551,74.3136299 C223.212183,74.457491 221.710573,75.2252548 220.632018,76.3746291 C219.754917,77.3104832 219.158303,78.5007443 218.970795,79.8182089 L224.814519,79.8182089 C225.468471,79.8182089 226,80.337623 226,80.9766691 C226,81.6172294 225.468471,82.1366436 224.814519,82.1366436 L218.908809,82.1366436 L218.908809,89.8400255 Z" id="Fill-27"></path>
                    <path d="M214,81 L224,81" id="Fill-29"></path>
                    <polygon id="Fill-31" points="350 3 350 4.07129125 346.674832 4.07129125 346.674832 12 345.325168 12 345.325168 4.07129125 342 4.07129125 342 3"></polygon>
                    <path d="M352,3 L353.819229,3 L356.515774,10.608619 L359.194291,3 L361,3 L361,12 L359.789184,12 L359.789184,6.68824095 C359.789184,6.50512656 359.792188,6.20089715 359.7997,5.77555271 C359.808713,5.35020827 359.81322,4.89458507 359.81322,4.41012496 L357.136204,12 L355.877316,12 L353.17326,4.41012496 L353.17326,4.68407562 C353.17326,4.90467799 353.180771,5.24206985 353.194291,5.69192566 C353.206309,6.14466517 353.213821,6.47484781 353.213821,6.68824095 L353.213821,12 L352,12 L352,3 Z" id="Fill-33"></path>
                    <path d="M86.9361976,68.7461379 C90.5709844,70.3799622 94.5502645,71.2515376 98.6397824,71.2515376 C106.469732,71.2515376 113.5617,68.1038445 118.692353,63.0140871 C123.826069,57.9243296 127,50.8925078 127,43.1257688 C127,35.3590297 123.826069,28.3272079 118.692353,23.2374505 C113.5617,18.1476931 106.469732,15 98.6397824,15 C94.3879699,15 90.3474465,15.9338308 86.7157219,17.6056157 C82.947731,19.3411744 79.6268158,21.8723873 76.9780453,24.9790829 C75.9338479,26.2014143 76.0884871,28.0311153 77.3210075,29.065162 C78.5535278,30.0992088 80.3984807,29.9473664 81.441147,28.725035 C83.5463837,26.2560775 86.1798434,24.2456841 89.1654518,22.8715103 C92.0377602,21.548963 95.2484375,20.8110089 98.6397824,20.8110089 C104.851379,20.8110089 110.478102,23.3088164 114.549247,27.346306 C118.620392,31.385314 121.140552,36.9624855 121.140552,43.1257688 C121.140552,49.2875336 118.620392,54.8662236 114.549247,58.9052316 C110.478102,62.9427212 104.851379,65.4405287 98.6397824,65.4405287 C95.3785794,65.4405287 92.2153656,64.7511642 89.338464,63.4574669 C86.453907,62.1592143 83.8464756,60.256629 81.7075552,57.8377795 C80.8547429,56.8720618 79.5027982,56.6154481 78.3713292,57.0922333 C77.4603358,57.3534022 76.6917331,58.0442851 76.3839857,59.0084844 C71.959161,72.8808066 59.3216166,71.1619506 59.2848706,71.1573953 C57.6864218,70.9569633 56.2242392,72.0790787 56.0236676,73.6658318 C55.8200338,75.2510666 56.9530339,76.6996431 58.5514827,76.9000751 C58.5974151,76.9061488 73.4948355,78.9150238 80.422978,64.6236166 C82.4164458,66.2878093 84.5936433,67.6923516 86.9361976,68.7461379" id="Fill-35"></path>
                    <path d="M76,45.5008037 C76,43.5671642 74.4324759,42 72.5,42 C70.5659164,42 69,43.5671642 69,45.5008037 C69,47.4344432 70.5659164,49 72.5,49 C74.4324759,49 76,47.4344432 76,45.5008037" id="Fill-37"></path>
                    <path d="M183.091535,51.335429 C181.484506,51.335429 180.18155,52.6369248 180.18155,54.2421536 C180.18155,56.7585813 179.311899,59.0046866 177.744399,60.5704301 C176.272683,62.0420164 174.132004,62.9471407 171.466798,62.9471407 L171.454635,62.9471407 L171.454635,62.9577713 C168.842642,62.954734 166.819031,61.8840752 165.455261,60.1801333 C164.745249,59.2901956 164.203998,58.2149809 163.825426,57.027385 C162.428207,25.8598256 135.718374,0 104.242186,0 C90.5710325,0 79.613737,4.02294327 71.6804543,11.9579673 C63.4354961,20.2027989 59.085722,32.1425422 59.102446,46.4878507 C59.1115682,53.2899507 56.9131154,59.3949835 53.0696239,63.2372057 C49.9635112,66.3459127 45.9695032,67.9207682 41.2001073,67.9207682 C30.1683137,67.9207682 22.4646067,60.2256932 22.4646067,49.2062608 C22.4646067,47.4233482 21.0156956,45.9775793 19.2323034,45.9775793 C17.4473908,45.9775793 16,47.4233482 16,49.2062608 C16,63.793037 26.5969682,74.3781312 41.2001073,74.3781312 C47.6555918,74.3781312 53.3402495,72.1046899 57.6428923,67.8007936 C62.7634933,62.6798556 65.5776953,55.1077925 65.5670527,46.4802574 C65.551849,33.8859695 69.2478648,23.5271563 76.2537227,16.5215552 C82.931181,9.84398576 92.3468229,6.45736308 104.242186,6.45736308 C133.072933,6.45736308 157.427715,30.7863745 157.427715,59.5848166 C157.427715,69.1129201 154.891741,78.3949998 150.079775,86.5426369 L134.634351,86.5426369 C132.700443,78.5195304 125.430041,72.5967373 116.917498,72.5967373 C108.401914,72.5967373 101.133032,78.5195304 99.2006439,86.5426369 L83.0892993,86.5426369 L83.0892993,75.5824325 C83.0892993,73.7995199 81.6403881,72.3537509 79.8569959,72.3537509 C78.0720834,72.3537509 76.6246926,73.7995199 76.6246926,75.5824325 L76.6246926,89.7713185 C76.6246926,91.554231 78.0720834,93 79.8569959,93 L101.966194,93 C103.665966,93 105.076868,91.6848362 105.190896,89.9900062 C105.605956,83.8576374 110.756965,79.0541004 116.917498,79.0541004 C123.07651,79.0541004 128.229039,83.8576374 128.6441,89.9900062 C128.759648,91.6848362 130.169029,93 131.870322,93 L151.890533,93 C152.995841,93 154.025131,92.4350567 154.616554,91.5041151 C159.490855,83.8454881 162.48142,75.2149156 163.484863,66.2380875 C165.640746,67.8114243 168.304431,68.7438845 171.454635,68.7469218 L171.454635,68.7590712 L171.466798,68.7590712 C175.780083,68.7590712 179.330144,67.205477 181.858516,64.6799373 C184.522202,62.0192364 186,58.3152128 186,54.2421536 C186,52.6369248 184.698565,51.335429 183.091535,51.335429" id="Fill-39"></path>
                    <path d="M11.6703953,23.574024 C14.0744493,22.5573659 16.7244424,21.9949927 19.5143133,21.9949927 C22.3041842,21.9949927 24.9511031,22.5542329 27.3505458,23.5661915 C29.8483641,24.6204455 32.1048547,26.1712798 33.9970481,28.1012069 C35.145276,29.2651158 37.0036528,29.2588498 38.1472693,28.0886749 C39.2893487,26.9184999 39.2832002,25.0261688 38.1349724,23.8622598 C35.7124729,21.393457 32.8103923,19.4008699 29.5793683,18.039582 C26.4651652,16.7252892 23.063521,16 19.5143133,16 C15.9481973,16 12.5357932,16.7268557 9.41697887,18.0474145 C6.19364041,19.4102689 3.28848558,21.415388 0.852152033,23.9029888 C-0.288390234,25.0731638 -0.283778877,26.9670614 0.864448985,28.1309703 C2.01267685,29.2948793 3.87105367,29.2886133 5.01313305,28.1184383 C6.8976409,26.1932107 9.15566865,24.637677 11.6703953,23.574024" id="Fill-41"></path>
                    <path d="M19.4330702,32.0637239 C21.2819378,32.0637239 23.0398775,32.4376562 24.6417243,33.1158046 C26.3178289,33.8256422 27.8257168,34.8618782 29.0911303,36.1437054 C30.2353066,37.3082827 32.0675041,37.2813469 33.1798556,36.0850805 C34.2952381,34.888814 34.2694752,32.9732033 33.1237834,31.8086261 C31.3143179,29.9738227 29.1759964,28.500276 26.816417,27.502067 C24.5295799,26.5323782 22.0366395,26 19.4330702,26 C16.8840576,26 14.4274884,26.5197025 12.1588369,27.4656244 C9.80986575,28.44482 7.68972984,29.8755863 5.89844989,31.6517646 C4.74214989,32.8036662 4.69517047,34.7176925 5.79691372,35.928219 C6.89865697,37.1387456 8.72933901,37.1846949 9.88563901,36.0343778 C11.1571144,34.7731485 12.6498477,33.7622638 14.2880656,33.0793621 C15.8611186,32.4249806 17.5963263,32.0637239 19.4330702,32.0637239" id="Fill-43"></path>
                    <path d="M16.8553171,40.1307545 C17.4425616,39.8401552 18.1274258,39.6740985 18.8702519,39.6740985 C19.652736,39.6740985 20.3833596,39.8668429 21.0133127,40.204887 C21.6737721,40.5592401 22.228985,41.0677888 22.6270909,41.6771576 C23.4827899,42.9996807 25.2796054,43.3970307 26.6401821,42.5652645 C28.0007587,41.7320156 28.4080166,39.9854549 27.5523176,38.6629318 C26.6234036,37.2351406 25.3375671,36.0534692 23.8168329,35.2394947 C22.3464338,34.4492427 20.6579155,34 18.8702519,34 C17.2107144,34 15.6243918,34.3958673 14.2104293,35.0986431 C12.7507074,35.8251412 11.4969024,36.8674436 10.5542607,38.1306607 C9.6100937,39.3983258 9.90142795,41.1700916 11.2055682,42.0878514 C12.5081831,43.0056113 14.3309288,42.723908 15.2750958,41.4562429 C15.6930308,40.8958015 16.2360412,40.4391455 16.8553171,40.1307545" id="Fill-45"></path>
                </g>
            </g>
        </g>
    </g>
</svg>