<svg xmlns="http://www.w3.org/2000/svg" id="flag-icon-css-bi" width="512" height="512">
  <defs>
    <clipPath id="a">
      <path fill="gray" d="M60.84 337h175v175h-175z"/>
    </clipPath>
  </defs>
  <g fill-rule="evenodd" clip-path="url(#a)" transform="translate(-178 -985.97) scale(2.9257)">
    <path fill="#00cf00" d="M0 337l146.56 87.5L0 512zm293.12 0l-146.56 87.5L293.12 512z"/>
    <path fill="red" d="M0 337l146.56 87.5L293.12 337zm0 175l146.56-87.5L293.12 512z"/>
    <path fill="#fff" d="M293.12 337h-27.31L0 495.7v16.305h27.31l265.81-158.7z"/>
    <path fill="#fff" d="M197.168 424.496c0 27.948-22.656 50.604-50.604 50.604S95.96 452.444 95.96 424.496s22.656-50.604 50.604-50.604 50.604 22.656 50.604 50.604z"/>
    <path fill="#fff" d="M0 337v16.305l265.81 158.7h27.31V495.7L27.31 337z"/>
    <path fill="red" stroke="#00de00" stroke-width="1pt" d="M156.523 405.41l-6.58.11-3.4 5.62-3.39-5.63-6.57-.14 3.18-5.75-3.16-5.768 6.57-.113 3.41-5.626 3.39 5.638 6.57.14-3.19 5.748zm-22.043 38.16l-6.58.11-3.4 5.62-3.39-5.63-6.57-.14 3.18-5.75-3.16-5.768 6.57-.113 3.41-5.626 3.39 5.638 6.57.14-3.19 5.748zm44.627 0l-6.58.11-3.4 5.62-3.39-5.63-6.57-.14 3.18-5.75-3.16-5.768 6.57-.113 3.41-5.626 3.39 5.638 6.57.14-3.19 5.748z"/>
  </g>
</svg>
