<svg xmlns="http://www.w3.org/2000/svg" xmlns:xlink="http://www.w3.org/1999/xlink" id="flag-icon-css-gd" width="512" height="512">
  <defs>
    <g id="c">
      <g id="b">
        <path id="a" fill="#fcd116" d="M0-1v1h.5" transform="rotate(18 0 -1)"/>
        <use width="100%" height="100%" transform="scale(-1 1)" xlink:href="#a"/>
      </g>
      <use width="100%" height="100%" transform="rotate(72)" xlink:href="#b"/>
      <use width="100%" height="100%" transform="rotate(144)" xlink:href="#b"/>
      <use width="100%" height="100%" transform="rotate(-144)" xlink:href="#b"/>
      <use width="100%" height="100%" transform="rotate(-72)" xlink:href="#b"/>
    </g>
  </defs>
  <path fill="#ce1126" d="M0 .05h512v512H0z"/>
  <path fill="#007a5e" d="M71.68 71.677h368.64v368.64H71.68z"/>
  <path fill="#fcd116" d="M71.68 71.73h368.64L71.68 440.37h368.64z"/>
  <circle cx="255.911" cy="256.05" r="61.44" fill="#ce1126"/>
  <use width="100%" height="100%" transform="translate(255.911 256.05) scale(56.32)" xlink:href="#c"/>
  <use width="100%" height="100%" x="-100" transform="translate(-16.349 -.1)" xlink:href="#d"/>
  <use id="d" width="100%" height="100%" transform="translate(256 35.89) scale(33.28)" xlink:href="#c"/>
  <use width="100%" height="100%" x="100" transform="translate(16.35)" xlink:href="#d"/>
  <path fill="#ce1126" d="M99.803 256.75c7.687 14.319 22.639 29.9 35.696 35.379.21-14.54-4.949-33.178-12.004-48.026L99.803 256.75z"/>
  <path fill="#fcd116" d="M86.769 207.632c11.143 23.228-28.9 78.643 37.813 91.63-8.23-11.23-13.536-29.763-11.529-44.646 13.997 5.325 28.723 20.907 34.675 32.82 17.459-63.403-44.783-59.546-60.96-79.804z"/>
  <use width="100%" height="100%" x="-100" transform="translate(-16.349 442.086)" xlink:href="#d"/>
  <use width="100%" height="100%" transform="translate(256 478.076) scale(33.28)" xlink:href="#c"/>
  <use width="100%" height="100%" x="100" transform="translate(16.35 442.186)" xlink:href="#d"/>
</svg>
