<svg xmlns="http://www.w3.org/2000/svg" xmlns:xlink="http://www.w3.org/1999/xlink" id="flag-icon-css-ke" width="512" height="512">
  <defs>
    <path id="a" stroke-miterlimit="10" d="M-28.58 47.5l1.733 1 46.713-80.91c2.732-.73 4.232-3.33 5.732-5.927 1-1.732 5-8.66 6.734-17.663-6.93 6.003-10.93 12.93-11.93 14.663-1.5 2.598-3 5.196-2.268 7.928z"/>
  </defs>
  <path fill="#fff" d="M0 0h512v512H0z"/>
  <path d="M0 0h512v153.6H0z"/>
  <path fill="#060" d="M0 358.4h512V512H0z"/>
  <g id="b" transform="matrix(3.2 0 0 3.2 255.854 256)">
    <use width="100%" height="100%" stroke="#000" xlink:href="#a"/>
    <use width="100%" height="100%" fill="#fff" xlink:href="#a"/>
  </g>
  <use width="100%" height="100%" transform="matrix(-1 0 0 1 511.708 0)" xlink:href="#b"/>
  <path fill="#b00" d="M255.854 102.4c-19.2 0-51.2 51.2-60.8 76.8H0v153.6h195.055c9.6 25.6 41.6 76.8 60.8 76.8 19.2 0 51.2-51.2 60.8-76.8H512V179.2H316.654c-9.6-25.6-41.6-76.8-60.8-76.8z"/>
  <path id="c" d="M316.654 332.8c9.6-25.6 16-51.2 16-76.8 0-25.6-6.4-51.2-16-76.8-9.6 25.6-16 51.2-16 76.8 0 25.6 6.4 51.2 16 76.8"/>
  <use width="100%" height="100%" transform="matrix(-1 0 0 1 511.708 0)" xlink:href="#c"/>
  <g fill="#fff" transform="matrix(3.2 0 0 3.2 255.854 256)">
    <ellipse rx="4" ry="6"/>
    <path id="d" d="M1 5.85s4 8 4 21-4 21-4 21z"/>
    <use width="100%" height="100%" transform="scale(-1)" xlink:href="#d"/>
    <use width="100%" height="100%" transform="scale(-1 1)" xlink:href="#d"/>
    <use width="100%" height="100%" transform="scale(1 -1)" xlink:href="#d"/>
  </g>
</svg>
