<svg xmlns="http://www.w3.org/2000/svg" xmlns:xlink="http://www.w3.org/1999/xlink" id="flag-icon-css-my" width="512" height="512">
  <path fill="#cc0001" d="M0 .05h512v512H0z"/>
  <path id="a" fill="#fff" d="M0 475.48h512v36.57H0z"/>
  <use width="100%" height="100%" transform="translate(0 -73.143)" xlink:href="#a"/>
  <use width="100%" height="100%" transform="translate(0 -146.286)" xlink:href="#a"/>
  <use width="100%" height="100%" transform="translate(0 -219.43)" xlink:href="#a"/>
  <use width="100%" height="100%" transform="translate(0 -292.57)" xlink:href="#a"/>
  <use width="100%" height="100%" transform="translate(0 -365.714)" xlink:href="#a"/>
  <use width="100%" height="100%" transform="translate(0 -438.857)" xlink:href="#a"/>
  <path fill="#010066" d="M0 .05h320.077v292.57H0z"/>
  <g fill="#fc0">
    <path d="M123.812 51.9c-51.45 0-93.21 41.621-93.21 92.9 0 51.28 41.76 92.903 93.21 92.903 18.59 0 35.908-5.44 50.454-14.798a82.693 82.693 0 0 1-27.025 4.522c-45.623 0-82.65-36.904-82.65-82.375 0-45.472 37.027-82.376 82.65-82.376 10.082 0 19.74 1.8 28.676 5.1-14.877-10.02-32.81-15.877-52.105-15.877z"/>
    <path d="M278.39 193.164l-39.263-20.486 11.61 41.926-26.262-35.071-8.193 42.686-8.058-42.71-26.372 34.991 11.741-41.89-39.328 20.367 29.216-32.774-44.495 1.709 40.903-17.166-40.848-17.289 44.489 1.843-29.112-32.862 39.264 20.486-11.61-41.926 26.262 35.071 8.193-42.686 8.058 42.71 26.372-34.991-11.742 41.89 39.328-20.367-29.215 32.774 44.494-1.709-40.902 17.166 40.848 17.288-44.489-1.842z"/>
  </g>
</svg>
