<svg xmlns="http://www.w3.org/2000/svg" id="flag-icon-css-pa" width="640" height="480">
  <defs>
    <clipPath id="a">
      <path fill-opacity=".67" d="M0 0h640v480H0z"/>
    </clipPath>
  </defs>
  <g clip-path="url(#a)">
    <path fill="#fff" d="M0 0h640v480H0z"/>
    <path fill="#fff" fill-rule="evenodd" d="M92.462 0h477.19v480H92.462z"/>
    <path fill="#db0000" fill-rule="evenodd" d="M323.07 3.655h358v221.68h-358z"/>
    <path fill="#0000ab" fill-rule="evenodd" d="M3.227 225.33h319.87v254.66H3.227zM214.8 177.65l-41.959-29.326-41.754 29.614 15.529-48.124-41.677-29.716 51.562-.414 15.993-47.978 16.335 47.867 51.562.063-41.463 29.996 15.872 48.017z"/>
    <path fill="#d80000" fill-rule="evenodd" d="M516.85 413.89l-42.354-27.744-42.146 28.017 15.675-45.529-42.069-28.114 52.047-.392 16.143-45.391 16.489 45.286 52.047.06-41.853 28.379 16.021 45.428z"/>
  </g>
</svg>
