<svg xmlns="http://www.w3.org/2000/svg" xmlns:xlink="http://www.w3.org/1999/xlink" id="flag-icon-css-ph" width="512" height="512">
  <path fill="#0038a8" d="M0 0h512v256H0z"/>
  <path fill="#ce1126" d="M0 256h512v256H0z"/>
  <path fill="#fff" d="M443.405 256L0 512V0"/>
  <g fill="#fcd116" transform="translate(159.289 256) scale(5.68889)">
    <circle r="9"/>
    <g id="d">
      <g id="c">
        <g id="b">
          <path d="M-1 0l.062.062L0 0l-.938-.062z" transform="scale(19)"/>
          <path id="a" d="M-.884.116l.05.05L0 0z" transform="scale(19.2381)"/>
          <use width="100%" height="100%" transform="scale(1 -1)" xlink:href="#a"/>
        </g>
        <use width="100%" height="100%" transform="rotate(45)" xlink:href="#b"/>
      </g>
      <use width="100%" height="100%" transform="rotate(90)" xlink:href="#c"/>
    </g>
    <use width="100%" height="100%" transform="scale(-1)" xlink:href="#d"/>
    <g transform="translate(-2.02)">
      <g id="f" transform="translate(37.962)">
        <path id="e" d="M5 0L1.618 1.176l-.073 3.58-2.163-2.854-3.427 1.037L-2 0z"/>
        <use width="100%" height="100%" transform="scale(1 -1)" xlink:href="#e"/>
      </g>
      <use width="100%" height="100%" transform="rotate(120)" xlink:href="#f"/>
      <use width="100%" height="100%" transform="rotate(-120)" xlink:href="#f"/>
    </g>
  </g>
</svg>
