<svg xmlns="http://www.w3.org/2000/svg" id="flag-icon-css-sy" width="512" height="512">
  <rect width="512" height="170.667" y="170.667" fill="#fff" fill-rule="evenodd" rx="0" ry="0"/>
  <rect width="512" height="170.667" y="341.333" fill-rule="evenodd" rx="0" ry="0"/>
  <path fill="red" fill-rule="evenodd" d="M0 0h512v170.667H0z"/>
  <path fill="#090" fill-rule="evenodd" d="M151.36 299.73l-30.743-22.258-30.592 22.476 11.378-36.525-30.536-22.554 37.779-.314 11.718-36.414 11.969 36.33 37.779.047-30.38 22.767 11.629 36.444zm285.48 0l-30.743-22.258-30.592 22.476 11.378-36.525-30.536-22.554 37.779-.314 11.718-36.414 11.969 36.33 37.779.047-30.38 22.767 11.629 36.444z"/>
</svg>
