<svg xmlns="http://www.w3.org/2000/svg" xmlns:xlink="http://www.w3.org/1999/xlink" id="flag-icon-css-tj" width="512" height="512">
  <path fill="#060" d="M0 0h512v512H0z"/>
  <path fill="#fff" d="M0 0h512v365.714H0z"/>
  <path fill="#c00" d="M0 0h512v146.286H0z"/>
  <g fill="#f8c300" transform="translate(-256) scale(.73143)">
    <path d="M672 340.7a12.5 12.5 0 0 1 23.3 5.9v50h9.4v-50a12.5 12.5 0 0 1 23.3-5.9 29.5 29.5 0 1 0-56 0"/>
    <path fill="#fff" d="M678.7 327.65a20 20 0 0 1 21.3 9.55 20 20 0 0 1 21.3-9.55 21.5 21.5 0 0 0-42.6 0"/>
    <path id="a" d="M695.3 376.627a38 38 0 0 1-63.845 24.316 39.5 39.5 0 0 1-59.734 17.467c3.65 36.426 58.252 28.989 62.32-6.429 17.154 30.115 54.873 21.49 65.91-15.4z"/>
    <use width="100%" height="100%" transform="matrix(-1 0 0 1 1400 0)" xlink:href="#a"/>
    <path id="b" d="M658.84 441.31c-7.618 16.446-22.845 19.271-36.164 5.995 0 0 5.354-3.783 11.086-4.826-1.075-4.574 1.13-10.902 4.235-14.324 3.258 2.227 7.804 6.689 8.96 11.874 8.03-1.04 11.883 1.282 11.883 1.282z"/>
    <use width="100%" height="100%" transform="rotate(9.37 700 804)" xlink:href="#b"/>
    <use width="100%" height="100%" transform="rotate(18.74 700 804)" xlink:href="#b"/>
    <path fill="none" stroke="#f8c300" stroke-width="16" d="M603 478a340 340 0 0 1 194 0"/>
    <g transform="translate(700 380)">
      <g transform="translate(0 -140)">
        <path id="c" d="M488533-158734l-790463 574305L0-513674l301930 929245-790463-574305z" transform="scale(.00005)"/>
      </g>
      <g id="d">
        <use width="100%" height="100%" transform="translate(-70 -121.244)" xlink:href="#c"/>
        <use width="100%" height="100%" transform="translate(-121.244 -70)" xlink:href="#c"/>
        <use width="100%" height="100%" transform="translate(-140)" xlink:href="#c"/>
      </g>
      <use width="100%" height="100%" transform="scale(-1 1)" xlink:href="#d"/>
    </g>
  </g>
</svg>
