<svg xmlns="http://www.w3.org/2000/svg" id="flag-icon-css-um" width="512" height="512">
  <defs>
    <clipPath id="a">
      <path fill-opacity=".67" d="M0 0h130v130H0z"/>
    </clipPath>
  </defs>
  <g fill-rule="evenodd" clip-path="url(#a)" transform="scale(3.9385)">
    <g stroke-width="1pt">
      <path fill="#bd3d44" d="M0 0h247v10H0zm0 20h247v10H0zm0 20h247v10H0zm0 20h247v10H0zm0 20h247v10H0zm0 20h247v10H0zm0 20h247v10H0z"/>
      <path fill="#fff" d="M0 10h247v10H0zm0 20h247v10H0zm0 20h247v10H0zm0 20h247v10H0zm0 20h247v10H0zm0 20h247v10H0z"/>
    </g>
    <path fill="#192f5d" d="M0 0h98.8v70H0z"/>
    <g fill="#fff">
      <path d="M8.233 2.996l.9 2.767h2.908l-2.353 1.71.899 2.766-2.354-1.71-2.353 1.71.899-2.766-2.354-1.71h2.91zm16.467 0l.899 2.767h2.909l-2.353 1.71.898 2.766L24.7 8.53l-2.353 1.71.898-2.766-2.353-1.71h2.909zm16.467 0l.899 2.767h2.909l-2.353 1.71.899 2.766-2.354-1.71-2.353 1.71.899-2.766-2.354-1.71h2.91zm16.466 0l.899 2.767h2.909l-2.353 1.71.899 2.766-2.354-1.71-2.353 1.71.899-2.766-2.354-1.71h2.91zm16.467 0l.899 2.767h2.909l-2.354 1.71.9 2.766L74.1 8.53l-2.353 1.71.898-2.766-2.353-1.71h2.909zm16.467 0l.899 2.767h2.909l-2.354 1.71.9 2.766-2.354-1.71-2.353 1.71.898-2.766-2.353-1.71h2.909zm-74.1 7l.899 2.767h2.909l-2.353 1.71.898 2.766-2.353-1.71-2.353 1.71.898-2.766-2.353-1.71h2.909zm16.466 0l.899 2.767h2.909l-2.353 1.71.899 2.766-2.354-1.71-2.353 1.71.899-2.766-2.354-1.71h2.91zm16.467 0l.899 2.767h2.909l-2.353 1.71.899 2.766-2.354-1.71-2.353 1.71.899-2.766-2.354-1.71h2.91zm16.467 0l.899 2.767h2.909l-2.353 1.71.898 2.766-2.353-1.71-2.353 1.71.899-2.766-2.354-1.71h2.91zm16.466 0l.899 2.767h2.909l-2.354 1.71.9 2.766-2.354-1.71-2.353 1.71.898-2.766-2.353-1.71h2.909zm-74.1 7l.9 2.767h2.908l-2.353 1.71.899 2.766-2.354-1.71-2.353 1.71.899-2.766-2.354-1.71h2.91zm16.467 0l.899 2.767h2.909l-2.353 1.71.898 2.766-2.353-1.71-2.353 1.71.898-2.766-2.353-1.71h2.909zm16.467 0l.899 2.767h2.909l-2.353 1.71.899 2.766-2.354-1.71-2.353 1.71.899-2.766-2.354-1.71h2.91zm16.466 0l.899 2.767h2.909l-2.353 1.71.899 2.766-2.354-1.71-2.353 1.71.899-2.766-2.354-1.71h2.91zm16.467 0l.899 2.767h2.909l-2.354 1.71.9 2.766-2.354-1.71-2.353 1.71.898-2.766-2.353-1.71h2.909zm16.467 0l.899 2.767h2.909l-2.354 1.71.9 2.766-2.354-1.71-2.353 1.71.898-2.766-2.353-1.71h2.909zm-74.1 7l.899 2.767h2.909l-2.353 1.71.898 2.766-2.353-1.71-2.353 1.71.898-2.766-2.353-1.71h2.909zm16.466 0l.899 2.767h2.909l-2.353 1.71.899 2.766-2.354-1.71-2.353 1.71.899-2.766-2.354-1.71h2.91zm16.467 0l.899 2.767h2.909l-2.353 1.71.899 2.766-2.354-1.71-2.353 1.71.899-2.766-2.354-1.71h2.91zm16.467 0l.899 2.767h2.909l-2.353 1.71.898 2.766-2.353-1.71-2.353 1.71.899-2.766-2.354-1.71h2.91zm16.466 0l.899 2.767h2.909l-2.354 1.71.9 2.766-2.354-1.71-2.353 1.71.898-2.766-2.353-1.71h2.909zm-74.1 7l.9 2.767h2.908l-2.353 1.71.899 2.766-2.354-1.71-2.353 1.71.899-2.766-2.354-1.71h2.91zm16.467 0l.899 2.767h2.909l-2.353 1.71.898 2.766-2.353-1.71-2.353 1.71.898-2.766-2.353-1.71h2.909zm16.467 0l.899 2.767h2.909l-2.353 1.71.899 2.766-2.354-1.71-2.353 1.71.899-2.766-2.354-1.71h2.91zm16.466 0l.899 2.767h2.909l-2.353 1.71.899 2.766-2.354-1.71-2.353 1.71.899-2.766-2.354-1.71h2.91zm16.467 0l.899 2.767h2.909l-2.354 1.71.9 2.766-2.354-1.71-2.353 1.71.898-2.766-2.353-1.71h2.909zm16.467 0l.899 2.767h2.909l-2.354 1.71.9 2.766-2.354-1.71-2.353 1.71.898-2.766-2.353-1.71h2.909zm-74.1 7l.899 2.767h2.909l-2.353 1.71.898 2.766-2.353-1.71-2.353 1.71.898-2.766-2.353-1.71h2.909zm16.466 0l.899 2.767h2.909l-2.353 1.71.899 2.766-2.354-1.71-2.353 1.71.899-2.766-2.354-1.71h2.91zm16.467 0l.899 2.767h2.909l-2.353 1.71.899 2.766-2.354-1.71-2.353 1.71.899-2.766-2.354-1.71h2.91zm16.467 0l.899 2.767h2.909l-2.353 1.71.898 2.766-2.353-1.71-2.353 1.71.899-2.766-2.354-1.71h2.91zm16.466 0l.899 2.767h2.909l-2.354 1.71.9 2.766-2.354-1.71-2.353 1.71.898-2.766-2.353-1.71h2.909zM8.233 44.996l.9 2.767h2.908l-2.353 1.71.899 2.766-2.354-1.71-2.353 1.71.899-2.766-2.354-1.71h2.91zm16.467 0l.899 2.767h2.909l-2.353 1.71.898 2.766-2.353-1.71-2.353 1.71.898-2.766-2.353-1.71h2.909zm16.467 0l.899 2.767h2.909l-2.353 1.71.899 2.766-2.354-1.71-2.353 1.71.899-2.766-2.354-1.71h2.91zm16.466 0l.899 2.767h2.909l-2.353 1.71.899 2.766-2.354-1.71-2.353 1.71.899-2.766-2.354-1.71h2.91zm16.467 0l.899 2.767h2.909l-2.354 1.71.9 2.766-2.354-1.71-2.353 1.71.898-2.766-2.353-1.71h2.909zm16.467 0l.899 2.767h2.909l-2.354 1.71.9 2.766-2.354-1.71-2.353 1.71.898-2.766-2.353-1.71h2.909zm-74.1 7l.899 2.767h2.909l-2.353 1.71.898 2.766-2.353-1.71-2.353 1.71.898-2.766-2.353-1.71h2.909zm16.466 0l.899 2.767h2.909l-2.353 1.71.899 2.766-2.354-1.71-2.353 1.71.899-2.766-2.354-1.71h2.91zm16.467 0l.899 2.767h2.909l-2.353 1.71.899 2.766-2.354-1.71-2.353 1.71.899-2.766-2.354-1.71h2.91zm16.467 0l.899 2.767h2.909l-2.353 1.71.898 2.766-2.353-1.71-2.353 1.71.899-2.766-2.354-1.71h2.91zm16.466 0l.899 2.767h2.909l-2.354 1.71.9 2.766-2.354-1.71-2.353 1.71.898-2.766-2.353-1.71h2.909zM8.233 58.996l.9 2.767h2.908l-2.353 1.71.899 2.766-2.354-1.71-2.353 1.71.899-2.766-2.354-1.71h2.91zm16.467 0l.899 2.767h2.909l-2.353 1.71.898 2.766-2.353-1.71-2.353 1.71.898-2.766-2.353-1.71h2.909zm16.467 0l.899 2.767h2.909l-2.353 1.71.899 2.766-2.354-1.71-2.353 1.71.899-2.766-2.354-1.71h2.91zm16.466 0l.899 2.767h2.909l-2.353 1.71.899 2.766-2.354-1.71-2.353 1.71.899-2.766-2.354-1.71h2.91zm16.467 0l.899 2.767h2.909l-2.354 1.71.9 2.766-2.354-1.71-2.353 1.71.898-2.766-2.353-1.71h2.909zm16.467 0l.899 2.767h2.909l-2.354 1.71.9 2.766-2.354-1.71-2.353 1.71.898-2.766-2.353-1.71h2.909z"/>
    </g>
  </g>
</svg>
