<svg xmlns="http://www.w3.org/2000/svg" id="flag-icon-css-za" width="512" height="512">
  <defs>
    <clipPath id="a">
      <path fill-opacity=".67" d="M70.133 0h499.61v499.61H70.133z"/>
    </clipPath>
  </defs>
  <g clip-path="url(#a)" transform="translate(-71.873) scale(1.0248)">
    <g fill-rule="evenodd" stroke-width="1pt">
      <path d="M.001 397.908V101.846l220.373 147.955L0 397.918z"/>
      <path fill="#00c" d="M150.371 499.667l247.41-166.512h351.66v166.512h-599.07z"/>
      <path fill="red" d="M134.465.007L749.422.02v166.54H397.76S137.762-1.64 134.465.007z"/>
      <path fill="#fc0" d="M.001 62.47v39.352l220.373 147.955L0 397.894v39.35l277.564-187.467L.001 62.47z"/>
      <path fill="#093" d="M.001 62.47V.007H92.6L386.63 198.95h362.79v101.737H386.63L92.598 499.6H0v-62.356l277.564-187.468L.001 62.47z"/>
      <path fill="#fff" d="M92.599.007h57.762l247.41 166.54h351.66v32.403h-362.79L92.61.007zm0 499.66h57.762l247.41-166.512h351.66v-32.402h-362.79L92.61 499.667z"/>
    </g>
  </g>
</svg>
